<svg width="67" height="67" viewBox="0 0 67 67" fill="none" xmlns="http://www.w3.org/2000/svg">
<path d="M64.9062 33.5C64.9062 41.8295 61.5974 49.8178 55.7076 55.7076C49.8178 61.5974 41.8295 64.9062 33.5 64.9062V33.5H64.9062Z" fill="#FF7155" stroke="#4D4E50" stroke-width="1.04688"/>
<path d="M2.09375 33.5002C2.09374 27.4288 3.85357 21.4875 7.16021 16.3956C10.4669 11.3036 15.1786 7.27922 20.725 4.80957L33.5 33.5002H2.09375Z" fill="#B25AF9" stroke="#4D4E50" stroke-width="1.04688"/>
<path d="M64.9063 33.5C64.9063 40.3259 62.6824 46.9661 58.5713 52.4152C54.4603 57.8643 48.6858 61.8256 42.1221 63.6996C35.5584 65.5735 28.5629 65.258 22.1945 62.8009C15.8262 60.3437 10.4317 55.8786 6.82784 50.0815C3.22395 44.2845 1.60683 37.4711 2.22129 30.6729C2.83575 23.8747 5.64833 17.4617 10.2333 12.4048C14.8182 7.34789 20.9258 3.92242 27.6315 2.64694C34.3373 1.37146 41.276 2.31541 47.3973 5.3359L33.5 33.5H64.9063Z" stroke="#4D4E50" stroke-width="1.04688"/>
<path d="M33.5 64.9062C50.8452 64.9062 64.9062 50.8452 64.9062 33.5C64.9062 16.1548 50.8452 2.09375 33.5 2.09375C16.1548 2.09375 2.09375 16.1548 2.09375 33.5C2.09375 50.8452 16.1548 64.9062 33.5 64.9062Z" stroke="#4D4E50" stroke-width="1.04688"/>
<path d="M33.5 49.2031C42.1723 49.2031 49.2031 42.1723 49.2031 33.5C49.2031 24.8277 42.1723 17.7969 33.5 17.7969C24.8277 17.7969 17.7969 24.8277 17.7969 33.5C17.7969 42.1723 24.8277 49.2031 33.5 49.2031Z" fill="#010205" stroke="#4D4E50" stroke-width="1.04688"/>
<path d="M26.1719 38.7344L29.9668 32.8614C30.0522 32.729 30.1664 32.6177 30.3009 32.5356C30.4354 32.4535 30.5866 32.4028 30.7434 32.3873C30.9002 32.3718 31.0585 32.3919 31.2064 32.4461C31.3543 32.5002 31.4881 32.5871 31.5978 32.7002L34.304 35.4932C34.4117 35.6043 34.5427 35.6901 34.6875 35.7444C34.8323 35.7988 34.9873 35.8204 35.1415 35.8077C35.2957 35.795 35.4451 35.7483 35.579 35.6709C35.713 35.5936 35.8281 35.4875 35.9162 35.3603L40.8281 28.2656" stroke="white" stroke-width="1.04688" stroke-linecap="round" stroke-linejoin="round"/>
</svg>
