<svg width="67" height="67" viewBox="0 0 67 67" fill="none" xmlns="http://www.w3.org/2000/svg">
<path d="M11.9972 55.005C7.73627 50.759 4.83272 45.343 3.65498 39.4441C2.47724 33.5452 3.0784 27.4294 5.38218 21.8728C7.68595 16.3161 11.5885 11.5691 16.5946 8.23402C21.6007 4.89895 27.4847 3.1262 33.5 3.14071M55.0049 11.9941C59.266 16.2402 62.1696 21.6565 63.3472 27.5556C64.5249 33.4546 63.9236 39.5706 61.6195 45.1273C59.3155 50.6841 55.4126 55.4311 50.4062 58.766C45.3998 62.1009 39.5155 63.8733 33.5 63.8584" stroke="#4D4E50" stroke-width="1.04688" stroke-linecap="round" stroke-linejoin="round"/>
<path d="M33.5 49.2031C42.1723 49.2031 49.2031 42.1723 49.2031 33.5C49.2031 24.8277 42.1723 17.7969 33.5 17.7969C24.8277 17.7969 17.7969 24.8277 17.7969 33.5C17.7969 42.1723 24.8277 49.2031 33.5 49.2031Z" fill="#010205" stroke="#4D4E50" stroke-width="1.04688"/>
<path d="M27.2271 39.5172C30.688 37.2193 36.3453 37.2193 39.7812 39.5172M33.6517 34.4399C33.5509 34.4272 33.4489 34.4272 33.3481 34.4399C32.277 34.404 31.2618 33.9531 30.5171 33.1824C29.7724 32.4117 29.3566 31.3817 29.3574 30.31C29.3568 29.7658 29.4634 29.2268 29.6714 28.7239C29.8793 28.221 30.1844 27.7641 30.5692 27.3793C30.954 26.9945 31.411 26.6893 31.9139 26.4814C32.4168 26.2735 32.9557 26.1668 33.4999 26.1675C34.5983 26.1683 35.6515 26.605 36.4282 27.3817C37.2049 28.1584 37.6416 29.2116 37.6424 30.31C37.6412 31.381 37.2246 32.4099 36.4804 33.1801C35.7361 33.9504 34.7221 34.4019 33.6517 34.4399Z" stroke="white" stroke-width="1.04688" stroke-linecap="round" stroke-linejoin="round"/>
<path d="M11.5156 61.7656C12.3405 61.7656 13.1573 61.6032 13.9194 61.2875C14.6814 60.9718 15.3739 60.5092 15.9571 59.9259C16.5404 59.3426 17.0031 58.6502 17.3187 57.8881C17.6344 57.126 17.7969 56.3092 17.7969 55.4844C17.7969 54.6595 17.6344 53.8427 17.3187 53.0806C17.0031 52.3186 16.5404 51.6261 15.9571 51.0429C15.3739 50.4596 14.6814 49.9969 13.9194 49.6813C13.1573 49.3656 12.3405 49.2031 11.5156 49.2031C9.84973 49.2031 8.25207 49.8649 7.07411 51.0429C5.89615 52.2208 5.23438 53.8185 5.23438 55.4844C5.23438 57.1503 5.89615 58.7479 7.07411 59.9259C8.25207 61.1039 9.84973 61.7656 11.5156 61.7656Z" fill="#B25AF9" stroke="#4D4E50" stroke-width="1.04688"/>
<path d="M55.4844 17.7969C56.3092 17.7969 57.126 17.6344 57.8881 17.3187C58.6502 17.0031 59.3426 16.5404 59.9259 15.9571C60.5092 15.3739 60.9718 14.6814 61.2875 13.9194C61.6032 13.1573 61.7656 12.3405 61.7656 11.5156C61.7656 10.6908 61.6032 9.87397 61.2875 9.11189C60.9718 8.34982 60.5092 7.65738 59.9259 7.07411C59.3426 6.49084 58.6502 6.02817 57.8881 5.71251C57.126 5.39684 56.3092 5.23437 55.4844 5.23438C53.8185 5.23438 52.2208 5.89615 51.0429 7.07411C49.8649 8.25207 49.2031 9.84973 49.2031 11.5156C49.2031 13.1815 49.8649 14.7792 51.0429 15.9571C52.2208 17.1351 53.8185 17.7969 55.4844 17.7969Z" fill="#FF7155" stroke="#4D4E50" stroke-width="1.04688"/>
</svg>
