<svg width="67" height="67" viewBox="0 0 67 67" fill="none" xmlns="http://www.w3.org/2000/svg">
<path d="M9.28223 10.5586L33.4964 33.4988M57.7128 10.5586L33.4985 33.4988M57.7128 56.441L33.4985 33.5009M9.28223 56.441L33.4964 33.5009" stroke="#4D4E50" stroke-width="1.04688"/>
<path d="M33.4987 34.7732C34.2023 34.7732 34.7727 34.2028 34.7727 33.4991C34.7727 32.7955 34.2023 32.2251 33.4987 32.2251C32.795 32.2251 32.2246 32.7955 32.2246 33.4991C32.2246 34.2028 32.795 34.7732 33.4987 34.7732Z" fill="#4D4E50"/>
<path d="M9.42188 17.7969C10.3842 17.7969 11.3371 17.6073 12.2262 17.2391C13.1153 16.8708 13.9232 16.331 14.6036 15.6505C15.2841 14.97 15.8239 14.1622 16.1922 13.2731C16.5605 12.384 16.75 11.4311 16.75 10.4688C16.75 9.50641 16.5605 8.55349 16.1922 7.6644C15.8239 6.77531 15.2841 5.96746 14.6036 5.28698C13.9232 4.6065 13.1153 4.06672 12.2262 3.69845C11.3371 3.33017 10.3842 3.14062 9.42188 3.14063C7.47834 3.14063 5.6144 3.91269 4.24011 5.28698C2.86582 6.66127 2.09375 8.52521 2.09375 10.4688C2.09375 12.4123 2.86582 14.2762 4.24011 15.6505C5.6144 17.0248 7.47834 17.7969 9.42188 17.7969Z" fill="#FF7155" stroke="#4D4E50" stroke-width="1.04688"/>
<path d="M57.5781 15.7031C58.9664 15.7031 60.2978 15.1516 61.2794 14.17C62.261 13.1884 62.8125 11.857 62.8125 10.4688C62.8125 9.08051 62.261 7.74912 61.2794 6.76749C60.2978 5.78585 58.9664 5.23438 57.5781 5.23438C56.1899 5.23438 54.8585 5.78585 53.8769 6.76749C52.8952 7.74912 52.3438 9.08051 52.3438 10.4688C52.3438 11.857 52.8952 13.1884 53.8769 14.17C54.8585 15.1516 56.1899 15.7031 57.5781 15.7031ZM9.42188 61.7656C10.8101 61.7656 12.1415 61.2141 13.1231 60.2325C14.1048 59.2509 14.6562 57.9195 14.6562 56.5312C14.6562 55.143 14.1048 53.8116 13.1231 52.83C12.1415 51.8484 10.8101 51.2969 9.42188 51.2969C8.03363 51.2969 6.70225 51.8484 5.72061 52.83C4.73898 53.8116 4.1875 55.143 4.1875 56.5312C4.1875 57.9195 4.73898 59.2509 5.72061 60.2325C6.70225 61.2141 8.03363 61.7656 9.42188 61.7656Z" fill="#010205" stroke="#4D4E50" stroke-width="1.04688"/>
<path d="M57.5781 63.8594C59.5217 63.8594 61.3856 63.0873 62.7599 61.713C64.1342 60.3387 64.9062 58.4748 64.9062 56.5312C64.9062 54.5877 64.1342 52.7238 62.7599 51.3495C61.3856 49.9752 59.5217 49.2031 57.5781 49.2031C55.6346 49.2031 53.7706 49.9752 52.3964 51.3495C51.0221 52.7238 50.25 54.5877 50.25 56.5312C50.25 58.4748 51.0221 60.3387 52.3964 61.713C53.7706 63.0873 55.6346 63.8594 57.5781 63.8594Z" fill="#B25AF9" stroke="#4D4E50" stroke-width="1.04688"/>
<path d="M33.5 49.2031C42.1723 49.2031 49.2031 42.1723 49.2031 33.5C49.2031 24.8277 42.1723 17.7969 33.5 17.7969C24.8277 17.7969 17.7969 24.8277 17.7969 33.5C17.7969 42.1723 24.8277 49.2031 33.5 49.2031Z" fill="#010205" stroke="#4D4E50" stroke-width="1.04688"/>
<path d="M30.065 35.6753C30.065 35.8257 30.0354 35.9746 29.9778 36.1135C29.9202 36.2525 29.8359 36.3787 29.7295 36.4851C29.6232 36.5914 29.4969 36.6758 29.358 36.7334C29.219 36.7909 29.0701 36.8205 28.9197 36.8205C28.7693 36.8205 28.6204 36.7909 28.4814 36.7334C28.3425 36.6758 28.2162 36.5914 28.1099 36.4851C28.0035 36.3787 27.9191 36.2525 27.8616 36.1135C27.804 35.9746 27.7744 35.8257 27.7744 35.6753V33.615C27.7744 33.4646 27.804 33.3157 27.8616 33.1767C27.9191 33.0378 28.0035 32.9115 28.1099 32.8052C28.2162 32.6988 28.3425 32.6145 28.4814 32.5569C28.6204 32.4993 28.7693 32.4697 28.9197 32.4697C29.0701 32.4697 29.219 32.4993 29.358 32.5569C29.4969 32.6145 29.6232 32.6988 29.7295 32.8052C29.8359 32.9115 29.9202 33.0378 29.9778 33.1767C30.0354 33.3157 30.065 33.4646 30.065 33.615V35.6774V35.6753ZM39.2251 35.6753C39.2251 35.979 39.1045 36.2703 38.8897 36.4851C38.6749 36.6999 38.3836 36.8205 38.0799 36.8205C37.7761 36.8205 37.4848 36.6999 37.27 36.4851C37.0552 36.2703 36.9346 35.979 36.9346 35.6753V33.615C36.9346 33.3113 37.0552 33.02 37.27 32.8052C37.4848 32.5904 37.7761 32.4697 38.0799 32.4697C38.3836 32.4697 38.6749 32.5904 38.8897 32.8052C39.1045 33.02 39.2251 33.3113 39.2251 33.615V35.6774V35.6753Z" stroke="white" stroke-width="1.04688" stroke-miterlimit="10" stroke-linecap="round" stroke-linejoin="round"/>
<path d="M27.7744 33.6153V32.47C27.7744 30.9515 28.3776 29.4953 29.4513 28.4215C30.525 27.3478 31.9813 26.7446 33.4998 26.7446C35.0182 26.7446 36.4745 27.3478 37.5482 28.4215C38.6219 29.4953 39.2251 30.9515 39.2251 32.47V33.6142M39.2251 35.6755V36.8208C39.2251 38.0854 38.1992 39.1103 36.9346 39.1103H34.6451" stroke="white" stroke-width="1.04688" stroke-miterlimit="10" stroke-linecap="round" stroke-linejoin="round"/>
<path d="M33.5003 40.2554C33.6536 40.26 33.8062 40.2338 33.9491 40.1784C34.092 40.1229 34.2224 40.0394 34.3324 39.9326C34.4425 39.8258 34.5299 39.6981 34.5897 39.5569C34.6494 39.4157 34.6802 39.2639 34.6802 39.1106C34.6802 38.9573 34.6494 38.8055 34.5897 38.6643C34.5299 38.5232 34.4425 38.3954 34.3324 38.2886C34.2224 38.1819 34.092 38.0983 33.9491 38.0428C33.8062 37.9874 33.6536 37.9612 33.5003 37.9659C33.2027 37.9749 32.9203 38.0994 32.7129 38.3131C32.5056 38.5268 32.3896 38.8129 32.3896 39.1106C32.3896 39.4084 32.5056 39.6944 32.7129 39.9081C32.9203 40.1218 33.2027 40.2464 33.5003 40.2554Z" stroke="white" stroke-width="1.04688" stroke-miterlimit="10" stroke-linecap="round" stroke-linejoin="round"/>
</svg>
