<svg width="67" height="67" viewBox="0 0 67 67" fill="none" xmlns="http://www.w3.org/2000/svg">
<path d="M60.7188 2.09375H6.28125C5.17066 2.09375 4.10555 2.53493 3.32024 3.32024C2.53493 4.10555 2.09375 5.17066 2.09375 6.28125V60.7188C2.09375 61.8293 2.53493 62.8945 3.32024 63.6798C4.10555 64.4651 5.17066 64.9062 6.28125 64.9062H60.7188C61.8293 64.9062 62.8945 64.4651 63.6798 63.6798C64.4651 62.8945 64.9062 61.8293 64.9062 60.7188V6.28125C64.9062 5.17066 64.4651 4.10555 63.6798 3.32024C62.8945 2.53493 61.8293 2.09375 60.7188 2.09375Z" stroke="#4D4E50" stroke-width="1.04688"/>
<path d="M57.5781 7.32812H9.42188C8.86658 7.32813 8.33402 7.54872 7.94137 7.94137C7.54872 8.33402 7.32813 8.86658 7.32812 9.42188V19.8906C7.32813 20.4459 7.54872 20.9785 7.94137 21.3711C8.33402 21.7638 8.86658 21.9844 9.42188 21.9844H57.5781C58.1334 21.9844 58.666 21.7638 59.0586 21.3711C59.4513 20.9785 59.6719 20.4459 59.6719 19.8906V9.42188C59.6719 8.86658 59.4513 8.33402 59.0586 7.94137C58.666 7.54872 58.1334 7.32813 57.5781 7.32812Z" stroke="#4D4E50" stroke-width="1.04688"/>
<path d="M43.9688 14.6562H12.5625" stroke="#4D4E50" stroke-width="1.04688" stroke-linecap="round"/>
<path d="M57.5781 28.2656H46.0625C45.5072 28.2656 44.9746 28.4862 44.582 28.8789C44.1893 29.2715 43.9688 29.8041 43.9688 30.3594V39.7812C43.9688 40.3365 44.1893 40.8691 44.582 41.2618C44.9746 41.6544 45.5072 41.875 46.0625 41.875H57.5781C58.1334 41.875 58.666 41.6544 59.0586 41.2618C59.4513 40.8691 59.6719 40.3365 59.6719 39.7812V30.3594C59.6719 29.8041 59.4513 29.2715 59.0586 28.8789C58.666 28.4862 58.1334 28.2656 57.5781 28.2656Z" fill="#B25AF9" stroke="#4D4E50" stroke-width="1.04688"/>
<path d="M57.5781 46.0625H46.0625C45.5072 46.0625 44.9746 46.2831 44.582 46.6757C44.1893 47.0684 43.9688 47.601 43.9688 48.1562V57.5781C43.9688 58.1334 44.1893 58.666 44.582 59.0586C44.9746 59.4513 45.5072 59.6719 46.0625 59.6719H57.5781C58.1334 59.6719 58.666 59.4513 59.0586 59.0586C59.4513 58.666 59.6719 58.1334 59.6719 57.5781V48.1562C59.6719 47.601 59.4513 47.0684 59.0586 46.6757C58.666 46.2831 58.1334 46.0625 57.5781 46.0625Z" fill="#FF7155" stroke="#4D4E50" stroke-width="1.04688"/>
<path d="M23.0312 59.6719C31.7036 59.6719 38.7344 52.6411 38.7344 43.9688C38.7344 35.2964 31.7036 28.2656 23.0312 28.2656C14.3589 28.2656 7.32812 35.2964 7.32812 43.9688C7.32812 52.6411 14.3589 59.6719 23.0312 59.6719Z" fill="#010205" stroke="#4D4E50" stroke-width="1.04688"/>
<path d="M18.3203 48.6797L27.7422 39.2578M19.8906 42.9219C20.4459 42.9219 20.9785 42.7013 21.3711 42.3086C21.7638 41.916 21.9844 41.3834 21.9844 40.8281C21.9844 40.2728 21.7638 39.7403 21.3711 39.3476C20.9785 38.955 20.4459 38.7344 19.8906 38.7344C19.3353 38.7344 18.8028 38.955 18.4101 39.3476C18.0175 39.7403 17.7969 40.2728 17.7969 40.8281C17.7969 41.3834 18.0175 41.916 18.4101 42.3086C18.8028 42.7013 19.3353 42.9219 19.8906 42.9219ZM26.1719 49.2031C26.7272 49.2031 27.2597 48.9825 27.6524 48.5899C28.045 48.1972 28.2656 47.6647 28.2656 47.1094C28.2656 46.5541 28.045 46.0215 27.6524 45.6289C27.2597 45.2362 26.7272 45.0156 26.1719 45.0156C25.6166 45.0156 25.084 45.2362 24.6914 45.6289C24.2987 46.0215 24.0781 46.5541 24.0781 47.1094C24.0781 47.6647 24.2987 48.1972 24.6914 48.5899C25.084 48.9825 25.6166 49.2031 26.1719 49.2031Z" stroke="white" stroke-width="1.04688" stroke-linecap="round" stroke-linejoin="round"/>
</svg>
