<svg width="67" height="67" viewBox="0 0 67 67" fill="none" xmlns="http://www.w3.org/2000/svg">
<path d="M6.28125 9.42188C6.28125 7.75598 6.94302 6.15832 8.12099 4.98036C9.29895 3.8024 10.8966 3.14063 12.5625 3.14062H54.4375C56.1034 3.14063 57.7011 3.8024 58.879 4.98036C60.057 6.15832 60.7187 7.75598 60.7188 9.42188V59.4426C60.7188 61.2087 58.6669 62.1823 57.2997 61.0642L45.9599 51.792C45.7463 51.6173 45.5002 51.4865 45.2358 51.4072C44.9714 51.3278 44.694 51.3016 44.4194 51.3299C44.1448 51.3582 43.8786 51.4405 43.636 51.5721C43.3933 51.7037 43.1791 51.882 43.0056 52.0967L35.1289 61.8441C34.9327 62.087 34.6846 62.2829 34.4028 62.4174C34.1211 62.552 33.8128 62.6218 33.5005 62.6218C33.1883 62.6218 32.88 62.552 32.5982 62.4174C32.3165 62.2829 32.0684 62.087 31.8721 61.8441L23.9933 52.0977C23.8199 51.8831 23.6058 51.7049 23.3633 51.5733C23.1208 51.4417 22.8547 51.3593 22.5803 51.3309C22.3058 51.3025 22.0285 51.3286 21.7642 51.4078C21.4998 51.4869 21.2538 51.6175 21.0401 51.792L9.70034 61.0642C8.33312 62.1823 6.28125 61.2087 6.28125 59.4416V9.42188Z" stroke="#4D4E50" stroke-width="1.04688"/>
<path d="M33.5 64.9062C42.1723 64.9062 49.2031 57.8754 49.2031 49.2031C49.2031 40.5308 42.1723 33.5 33.5 33.5C24.8277 33.5 17.7969 40.5308 17.7969 49.2031C17.7969 57.8754 24.8277 64.9062 33.5 64.9062Z" fill="#010205" stroke="#4D4E50" stroke-width="1.04688"/>
<path d="M28.7891 53.9141L38.2109 44.4922M30.3594 48.1562C30.9147 48.1562 31.4472 47.9357 31.8399 47.543C32.2325 47.1504 32.4531 46.6178 32.4531 46.0625C32.4531 45.5072 32.2325 44.9746 31.8399 44.582C31.4472 44.1893 30.9147 43.9688 30.3594 43.9688C29.8041 43.9688 29.2715 44.1893 28.8789 44.582C28.4862 44.9746 28.2656 45.5072 28.2656 46.0625C28.2656 46.6178 28.4862 47.1504 28.8789 47.543C29.2715 47.9357 29.8041 48.1562 30.3594 48.1562ZM36.6406 54.4375C37.1959 54.4375 37.7285 54.2169 38.1211 53.8243C38.5138 53.4316 38.7344 52.899 38.7344 52.3438C38.7344 51.7885 38.5138 51.2559 38.1211 50.8632C37.7285 50.4706 37.1959 50.25 36.6406 50.25C36.0853 50.25 35.5528 50.4706 35.1601 50.8632C34.7675 51.2559 34.5469 51.7885 34.5469 52.3438C34.5469 52.899 34.7675 53.4316 35.1601 53.8243C35.5528 54.2169 36.0853 54.4375 36.6406 54.4375Z" stroke="white" stroke-width="1.04688" stroke-linecap="round" stroke-linejoin="round"/>
<path d="M52.3438 20.4141H14.6562C13.789 20.4141 13.0859 21.1171 13.0859 21.9844V25.125C13.0859 25.9923 13.789 26.6953 14.6562 26.6953H52.3438C53.211 26.6953 53.9141 25.9923 53.9141 25.125V21.9844C53.9141 21.1171 53.211 20.4141 52.3438 20.4141Z" fill="#FF7155" stroke="#4D4E50" stroke-width="1.04688"/>
<path d="M52.3438 9.94531H14.6562C13.789 9.94531 13.0859 10.6484 13.0859 11.5156V14.6562C13.0859 15.5235 13.789 16.2266 14.6562 16.2266H52.3438C53.211 16.2266 53.9141 15.5235 53.9141 14.6562V11.5156C53.9141 10.6484 53.211 9.94531 52.3438 9.94531Z" fill="#B25AF9" stroke="#4D4E50" stroke-width="1.04688"/>
</svg>
