<svg width="809" height="68" viewBox="0 0 809 68" fill="none" xmlns="http://www.w3.org/2000/svg">
<g clip-path="url(#clip0_5_375)">
<rect x="10" width="68" height="68" rx="16" fill="white" fill-opacity="0.05"/>
<g clip-path="url(#clip1_5_375)">
<path d="M29.0586 19H58.9376V49H29.0586V19ZM47.2148 26.1055L35.5435 41.7698H40.818L52.5333 26.1055H47.2148ZM33.218 44.845H54.7781V23.1558H33.218V44.845Z" fill="white"/>
</g>
<rect x="98" width="68" height="68" rx="16" fill="white" fill-opacity="0.05"/>
<g clip-path="url(#clip2_5_375)">
<path d="M117 19V33.952V49H132H147V34V19H132.006H117Z" fill="white"/>
<path d="M141.648 26.362L142.608 23.752H147V19H117V49H147V44.26H142.86L141.33 42.472L139.74 44.26H127.98V34.732H124.098L128.946 23.752H133.668L134.808 26.242V23.752H140.67L141.648 26.362ZM138.336 28.09L138.324 27.04L138.726 28.09L140.676 33.298H142.614L144.576 28.09L144.954 27.052V33.304H146.994V25.306H143.604L142.062 29.368L141.654 30.466L141.234 29.368L139.686 25.306H136.296V33.304H138.336V28.096V28.09ZM133.944 33.298H136.296L132.774 25.3H130.044L126.504 33.298H128.826L129.444 31.756H133.326L133.944 33.298ZM130.986 28.006L131.388 27.004L131.79 28.006L132.618 30.028H130.158L130.986 28.006ZM129.618 34.738V42.706H136.296V40.978H131.658V39.586H136.206V37.864H131.658V36.466H136.296V34.738H129.618ZM143.73 42.706H146.382L142.644 38.704L146.382 34.732H143.772L141.36 37.324L138.96 34.732H136.302L140.034 38.734L136.302 42.706H138.882L141.312 40.108L143.73 42.706ZM144.738 38.698L147 40.996V36.424L144.738 38.692V38.698Z" fill="#006FCF"/>
</g>
<rect x="186" width="68" height="68" rx="16" fill="white" fill-opacity="0.05"/>
<g clip-path="url(#clip3_5_375)">
<g clip-path="url(#clip4_5_375)">
<path d="M235.58 21.6162H206.262V46.1617H235.58V21.6162Z" fill="white"/>
<path d="M205.891 46.5027H235.891V21.2754H205.891V46.5027ZM225.584 41.0454H218.595V29.2056H222.106V38.9508H225.481C227.811 38.9508 228.791 37.4276 228.791 33.5222C228.791 29.5868 227.676 28.444 225.313 28.444H217.616V41.0454H214.138V28.444H209.04V26.3474H226.392C230.579 26.3474 232.571 28.3786 232.571 33.4908C232.571 40.2197 229.599 41.0454 225.584 41.0454Z" fill="#54B848"/>
</g>
</g>
<rect x="274" width="68" height="68" rx="16" fill="white" fill-opacity="0.05"/>
<g clip-path="url(#clip5_5_375)">
<g clip-path="url(#clip6_5_375)">
<path fill-rule="evenodd" clip-rule="evenodd" d="M293.848 45.3298V22.3978C293.848 20.7943 294.809 19.8315 296.411 19.8315H319.321C320.923 19.8315 321.885 20.7943 321.885 22.3978V45.3298C321.885 46.9333 320.923 47.896 319.321 47.896H296.411C294.809 47.896 293.848 46.9333 293.848 45.3298ZM319.527 45.5357V35.2269H312.409V40.3354H309.686V27.3921H312.409V32.5007H319.527V22.1918H296.205V32.5007H303.323V27.3921H306.047V40.3354H303.323V35.2269H296.205V45.5357H319.527Z" fill="white"/>
</g>
</g>
<rect x="362" width="68" height="68" rx="16" fill="white" fill-opacity="0.05"/>
<g clip-path="url(#clip7_5_375)">
<g clip-path="url(#clip8_5_375)">
<path d="M411.891 19.8887H381.891V49.8887H411.891V19.8887Z" fill="#6D1ED4"/>
<path d="M403.165 42.1919C403.153 42.1795 403.14 42.1678 403.128 42.1555C403.118 42.146 403.108 42.1373 403.099 42.1271C402.515 41.5179 402.042 40.7975 401.692 39.986C401.638 39.8601 401.514 39.7786 401.377 39.7786H401.095H399.835H394.841L402.835 29.5498C402.882 29.4894 402.907 29.4152 402.907 29.3388V27.3454C402.907 27.1554 402.754 27.0019 402.564 27.0019H398.831H398.684H398.253V24.1432C398.253 24.0493 398.176 23.9722 398.081 23.9722H397.996H397.934H395.578H395.493H395.431C395.336 23.9722 395.259 24.0493 395.259 24.1432V27.0019H394.643H394.495H391.034C390.844 27.0019 390.691 27.1554 390.691 27.3454V29.6561C390.691 29.8453 390.844 29.9988 391.034 29.9988H398.371L390.424 40.1366C390.377 40.197 390.352 40.2713 390.352 40.3484V42.432C390.352 42.622 390.504 42.7755 390.694 42.7755H395.261V45.6335C395.261 45.7288 395.338 45.8052 395.433 45.8052H395.493H395.581H397.936H397.996H398.083C398.178 45.8052 398.255 45.7288 398.255 45.6335V42.7755H400.176H402.639H402.92C403.058 42.7755 403.183 42.6926 403.237 42.5652C403.29 42.4371 403.262 42.2901 403.165 42.1919Z" fill="white"/>
</g>
</g>
<rect x="450" width="68" height="68" rx="16" fill="white" fill-opacity="0.05"/>
<g clip-path="url(#clip9_5_375)">
<path d="M499.891 28.5397C499.816 24.1257 496.3 20.5347 491.886 20.5347H469.891V39.2379C469.891 43.6519 473.482 47.1681 477.896 47.2429H499.891V28.5397Z" fill="#00AE64"/>
<path d="M491.886 21.9561H471.312V39.2379C471.312 42.8289 474.23 45.7466 477.821 45.7466H498.395V28.4648C498.395 24.8738 495.477 21.9561 491.886 21.9561Z" fill="white"/>
<path d="M491.807 22.9287H472.281V39.2379C472.281 42.3801 474.825 44.8489 477.892 44.8489H497.493V28.5397C497.493 25.4724 494.95 22.9287 491.807 22.9287Z" fill="#1B459C"/>
<path d="M483.354 42.2306L487.842 25.1733H486.795L482.306 42.3055L483.354 42.2306ZM492.481 36.3952C493.229 36.2456 493.902 35.9464 494.426 35.3479C494.875 34.7494 495.099 34.0012 494.875 33.2531C494.725 32.5798 494.276 31.9813 493.678 31.5324C493.154 31.1583 492.556 30.9339 491.957 30.9339H487.169C488.366 31.308 489.264 32.2057 489.638 33.4027C489.638 33.4027 490.386 35.7219 487.244 36.3952C487.842 36.6197 488.366 36.9937 488.89 37.5174C489.264 37.8915 489.488 38.4152 489.638 38.8641C490.161 41.3329 487.169 41.9314 487.169 41.9314H491.807C493.453 41.9314 494.127 41.0336 494.276 40.884C494.8 40.3603 495.024 39.6122 494.875 38.8641C494.725 38.2656 494.426 37.6671 493.902 37.293C493.528 36.9189 493.004 36.6197 492.481 36.3952ZM482.605 35.3479C483.054 34.899 483.204 33.9264 482.979 33.1035C482.755 32.3553 482.306 31.682 481.708 31.2331C481.184 30.8591 480.585 30.5598 479.912 30.485H474.825C476.097 30.8591 477.069 31.8316 477.518 33.1035C478.042 35.7219 475.049 36.2456 475.049 36.2456H480.66C481.333 36.2456 482.082 35.9464 482.605 35.3479ZM482.082 25.6222L482.007 29.4377H474.75V25.6222H482.082Z" fill="white"/>
</g>
<rect x="538" width="68" height="68" rx="16" fill="white" fill-opacity="0.05"/>
<g clip-path="url(#clip10_5_375)">
<g clip-path="url(#clip11_5_375)">
<path d="M577.227 30.8065H586.888V36.9708H577.227L582.058 45.3365L576.719 48.4209L571.888 40.0522L568.328 33.8879L571.888 27.7221L576.719 19.3564L582.058 22.4378L577.227 30.8065Z" fill="#99CC00"/>
<path d="M566.553 30.8065H556.891V36.9708H566.553L561.723 45.3365L567.062 48.4209L571.892 40.0522L575.452 33.8879L571.892 27.7221L567.062 19.3564L561.723 22.4378L566.553 30.8065Z" fill="#6633CC"/>
</g>
</g>
<rect x="626" width="68" height="68" rx="16" fill="white" fill-opacity="0.05"/>
<g clip-path="url(#clip12_5_375)">
<g clip-path="url(#clip13_5_375)">
<path d="M660.899 49.2531C668.826 49.2531 675.252 42.8273 675.252 34.9007C675.252 26.9741 668.826 20.5483 660.899 20.5483C652.973 20.5483 646.547 26.9741 646.547 34.9007C646.547 42.8273 652.973 49.2531 660.899 49.2531Z" fill="white"/>
<path fill-rule="evenodd" clip-rule="evenodd" d="M660.898 49.9004C652.603 49.9004 645.898 43.1946 645.898 34.9004C645.898 26.6062 652.603 19.9004 660.898 19.9004C669.192 19.9004 675.898 26.6062 675.898 34.9004C675.898 43.1946 669.192 49.9004 660.898 49.9004ZM672.012 37.7053C670.934 38.0291 669.746 38.1384 668.237 38.1384H658.092C657.552 38.1384 657.121 37.9219 656.797 37.5981L655.286 40.2957C653.668 43.2099 653.237 45.3672 654.1 46.2313C654.748 46.8789 656.366 46.8789 657.769 46.0148L658.199 45.691C666.078 41.2671 670.07 39.0005 672.012 37.7053ZM652.806 43.1026C653.02 42.022 653.56 40.9433 654.315 39.6481L659.387 30.9075C659.604 30.4765 660.035 30.1527 660.465 30.0434L658.956 27.3458C657.338 24.5408 655.61 23.0291 654.424 23.3529C653.453 23.5694 652.806 24.9719 652.806 26.5909C652.806 35.6553 652.806 40.836 652.806 43.1026ZM674.063 34.9004C674.278 34.0363 673.416 32.743 672.012 31.8789L671.581 31.6624C663.812 27.1312 659.818 24.8646 657.769 23.7859C658.416 24.5408 659.171 25.5122 659.927 26.8074L664.999 35.6553C665.323 36.1956 665.323 36.6267 665.214 37.0578H668.344C671.688 37.0578 673.74 36.3029 674.063 34.9004Z" fill="#F58025"/>
</g>
</g>
<rect x="714" width="68" height="68" rx="16" fill="white" fill-opacity="0.05"/>
<g clip-path="url(#clip14_5_375)">
<g clip-path="url(#clip15_5_375)">
<path d="M748.89 19.8887C745.924 19.8887 743.024 20.7684 740.557 22.4166C738.09 24.0649 736.168 26.4076 735.032 29.1485C733.897 31.8894 733.6 34.9054 734.179 37.8152C734.758 40.7249 736.186 43.3976 738.284 45.4955C740.382 47.5933 743.054 49.0219 745.964 49.6006C748.874 50.1794 751.89 49.8824 754.631 48.7471C757.372 47.6117 759.715 45.6891 761.363 43.2224C763.011 40.7556 763.891 37.8555 763.891 34.8888C763.891 30.9105 762.31 27.0951 759.497 24.2821C756.684 21.469 752.869 19.8887 748.89 19.8887Z" fill="#ED1C24"/>
<path d="M748.433 30.3055L745.829 26.9096C745.775 26.8383 745.705 26.7804 745.625 26.7407C745.545 26.7009 745.457 26.6803 745.367 26.6804C745.28 26.6799 745.194 26.6996 745.116 26.738C745.038 26.7763 744.97 26.8322 744.917 26.9013L741.817 30.8055V36.9305L744.908 32.9763C744.965 32.9051 745.036 32.8474 745.118 32.8077C745.199 32.768 745.289 32.7473 745.379 32.7472C745.471 32.7468 745.562 32.7677 745.644 32.8082C745.727 32.8487 745.799 32.9076 745.855 32.9805L748.471 36.4013C748.52 36.4655 748.583 36.5182 748.655 36.5556C748.727 36.593 748.807 36.6143 748.888 36.618C748.969 36.6152 749.048 36.5943 749.12 36.5568C749.192 36.5193 749.255 36.4662 749.305 36.4013L751.921 32.9805C751.978 32.9084 752.05 32.8499 752.132 32.8095C752.214 32.7691 752.305 32.7478 752.396 32.7472C752.487 32.7464 752.577 32.7666 752.659 32.8064C752.74 32.8461 752.812 32.9043 752.867 32.9763L755.95 36.9263V30.8013L752.85 26.8971C752.797 26.828 752.728 26.772 752.649 26.7338C752.57 26.6954 752.483 26.6758 752.396 26.6763C752.307 26.6771 752.219 26.6981 752.138 26.7378C752.059 26.7774 751.988 26.8348 751.934 26.9054L749.35 30.3055C749.297 30.376 749.227 30.433 749.147 30.4721C749.068 30.5112 748.981 30.5311 748.892 30.5305C748.804 30.5302 748.716 30.5098 748.637 30.4708C748.558 30.4318 748.488 30.3753 748.433 30.3055ZM755.971 41.418H741.805V36.9263H755.971V41.418Z" fill="white"/>
</g>
</g>
<rect x="802" width="68" height="68" rx="16" fill="white" fill-opacity="0.05"/>
</g>
<defs>
<clipPath id="clip0_5_375">
<rect width="808.33" height="68" fill="white"/>
</clipPath>
<clipPath id="clip1_5_375">
<rect width="30" height="30" fill="white" transform="translate(29 19)"/>
</clipPath>
<clipPath id="clip2_5_375">
<rect width="30" height="30" fill="white" transform="translate(117 19)"/>
</clipPath>
<clipPath id="clip3_5_375">
<rect width="30" height="30" fill="white" transform="translate(205 19)"/>
</clipPath>
<clipPath id="clip4_5_375">
<rect width="31" height="26" fill="white" transform="translate(205 21)"/>
</clipPath>
<clipPath id="clip5_5_375">
<rect width="30" height="30" fill="white" transform="translate(293 19)"/>
</clipPath>
<clipPath id="clip6_5_375">
<rect width="29" height="29" fill="white" transform="translate(293 19)"/>
</clipPath>
<clipPath id="clip7_5_375">
<rect width="30" height="30" fill="white" transform="translate(381 19)"/>
</clipPath>
<clipPath id="clip8_5_375">
<rect width="31" height="31" fill="white" transform="translate(381 19)"/>
</clipPath>
<clipPath id="clip9_5_375">
<rect width="30" height="30" fill="white" transform="translate(469 19)"/>
</clipPath>
<clipPath id="clip10_5_375">
<rect width="30" height="30" fill="white" transform="translate(557 19)"/>
</clipPath>
<clipPath id="clip11_5_375">
<rect width="31" height="30" fill="white" transform="translate(556 19)"/>
</clipPath>
<clipPath id="clip12_5_375">
<rect width="30" height="30" fill="white" transform="translate(645 19)"/>
</clipPath>
<clipPath id="clip13_5_375">
<rect width="31" height="31" fill="white" transform="translate(645 19)"/>
</clipPath>
<clipPath id="clip14_5_375">
<rect width="30" height="30" fill="white" transform="translate(733 19)"/>
</clipPath>
<clipPath id="clip15_5_375">
<rect width="31" height="31" fill="white" transform="translate(733 19)"/>
</clipPath>
</defs>
</svg>
