<svg width="1312" height="48" viewBox="0 0 1312 48" fill="none" xmlns="http://www.w3.org/2000/svg">
<g clip-path="url(#clip0_5_17)">
<g clip-path="url(#clip1_5_17)">
<g clip-path="url(#clip2_5_17)">
<g clip-path="url(#clip3_5_17)">
<path fill-rule="evenodd" clip-rule="evenodd" d="M27.7652 3.44804C27.2605 3.34431 26.7399 3.34431 26.2352 3.44804C25.6512 3.56804 25.1292 3.86004 24.7152 4.09304L24.6012 4.15604L10.5412 11.966L10.4212 12.033C9.98217 12.275 9.43117 12.579 9.00617 13.039C8.63984 13.4369 8.36267 13.9084 8.19317 14.422C7.99617 15.016 7.99918 15.646 8.00018 16.148V31.844C7.99918 32.345 7.99617 32.975 8.19317 33.57C8.36267 34.0836 8.63984 34.5551 9.00617 34.953C9.43017 35.413 9.98217 35.717 10.4222 35.959L10.5422 36.025L24.6012 43.835L24.7142 43.899C25.1292 44.131 25.6512 44.424 26.2342 44.544C26.7392 44.6479 27.2601 44.6479 27.7652 44.544C28.3492 44.424 28.8712 44.131 29.2852 43.899L29.3992 43.836L43.4592 36.025C43.499 36.0028 43.539 35.9808 43.5792 35.959C44.0182 35.717 44.5692 35.413 44.9942 34.953C45.3605 34.5551 45.6377 34.0836 45.8072 33.57C46.0042 32.975 46.0012 32.345 46.0002 31.844V16.148C46.0022 15.646 46.0042 15.016 45.8072 14.422C45.6377 13.9084 45.3605 13.4369 44.9942 13.039C44.5702 12.579 44.0182 12.275 43.5782 12.033L43.4592 11.967L29.3992 4.15604L29.2862 4.09304C28.8712 3.86004 28.3492 3.56804 27.7662 3.44804H27.7652ZM26.4462 7.47804C26.7342 7.31804 26.8812 7.23704 26.9912 7.18404L27.0002 7.18004L27.0102 7.18404C27.1192 7.23704 27.2662 7.31804 27.5542 7.47804L40.1872 14.496L27.0002 21.822L13.8132 14.496L26.4462 7.47804ZM11.8012 17.725L25.1002 25.114V39.766L12.3872 32.703C12.0832 32.534 11.9272 32.447 11.8192 32.378L11.8092 32.372V32.362C11.8009 32.1438 11.7982 31.9254 11.8012 31.707V17.725Z" fill="white" fill-opacity="0.5"/>
<path d="M63.2928 30.345H69.3408V33.909H58.6758V14.955H63.2928V30.345ZM73.5948 17.277C72.7848 17.277 72.1188 17.043 71.5968 16.575C71.353 16.3475 71.1597 16.0713 71.0294 15.7643C70.8992 15.4573 70.8349 15.1264 70.8408 14.793C70.8408 14.073 71.0928 13.479 71.5968 13.011C72.1188 12.525 72.7848 12.282 73.5948 12.282C74.3868 12.282 75.0348 12.525 75.5388 13.012C76.0608 13.479 76.3218 14.073 76.3218 14.793C76.3218 15.495 76.0608 16.089 75.5388 16.575C75.0348 17.043 74.3868 17.277 73.5948 17.277ZM75.8898 18.843V33.91H71.2728V18.843H75.8898ZM84.6898 18.627C85.7518 18.627 86.6788 18.843 87.4698 19.275C88.2798 19.707 88.9018 20.275 89.3338 20.976V18.843H93.9508V33.883C93.9508 35.268 93.6708 36.519 93.1138 37.635C92.5738 38.769 91.7368 39.669 90.6028 40.335C89.4868 41.001 88.0918 41.335 86.4178 41.335C84.1858 41.335 82.3768 40.803 80.9908 39.741C79.6048 38.697 78.8128 37.275 78.6148 35.475H83.1778C83.3218 36.051 83.6638 36.501 84.2038 36.825C84.7438 37.167 85.4098 37.338 86.2018 37.338C87.1558 37.338 87.9118 37.059 88.4698 36.501C89.0458 35.961 89.3338 35.088 89.3338 33.882V31.75C88.8838 32.452 88.2628 33.028 87.4708 33.478C86.6788 33.91 85.7508 34.126 84.6898 34.126C83.4478 34.126 82.3228 33.811 81.3148 33.181C80.3068 32.533 79.5048 31.624 78.9118 30.454C78.3358 29.266 78.0478 27.898 78.0478 26.35C78.0478 24.802 78.3358 23.443 78.9118 22.273C79.5058 21.103 80.3068 20.203 81.3148 19.573C82.3228 18.943 83.4478 18.627 84.6898 18.627ZM89.3338 26.377C89.3338 25.224 89.0098 24.315 88.3618 23.649C88.0678 23.3272 87.7087 23.0717 87.3083 22.8995C86.908 22.7273 86.4755 22.6422 86.0398 22.65C85.1218 22.65 84.3388 22.983 83.6898 23.65C83.0598 24.297 82.7458 25.197 82.7458 26.35C82.7458 27.501 83.0608 28.42 83.6908 29.103C84.3388 29.769 85.1208 30.103 86.0398 30.103C86.9578 30.103 87.7318 29.769 88.3618 29.103C89.0098 28.437 89.3338 27.528 89.3338 26.376V26.377ZM106.282 18.681C108.01 18.681 109.396 19.257 110.44 20.409C111.484 21.543 112.006 23.109 112.006 25.107V33.909H107.416V25.729C107.416 24.72 107.155 23.937 106.633 23.379C106.111 22.821 105.409 22.542 104.527 22.542C103.645 22.542 102.943 22.822 102.421 23.379C101.899 23.937 101.638 24.72 101.638 25.729V33.909H97.0208V13.93H101.638V20.87C102.106 20.203 102.745 19.672 103.555 19.276C104.365 18.88 105.274 18.681 106.282 18.681ZM123.341 29.994V33.909H120.992C119.318 33.909 118.013 33.504 117.077 32.694C116.141 31.866 115.673 30.525 115.673 28.671V22.677H113.837V18.843H115.673V15.171H120.29V18.843H123.314V22.677H120.29V28.725C120.29 29.175 120.398 29.499 120.614 29.697C120.83 29.895 121.19 29.994 121.694 29.994H123.341ZM130.26 20.976C130.692 20.274 131.313 19.707 132.123 19.276C132.933 18.843 133.86 18.627 134.904 18.627C136.146 18.627 137.271 18.942 138.279 19.572C139.287 20.202 140.079 21.102 140.655 22.272C141.249 23.442 141.546 24.802 141.546 26.349C141.546 27.897 141.249 29.265 140.655 30.453C140.079 31.623 139.287 32.533 138.279 33.18C137.271 33.81 136.146 34.125 134.904 34.125C133.842 34.125 132.915 33.918 132.123 33.505C131.331 33.072 130.71 32.505 130.26 31.803V33.909H125.643V13.93H130.26V20.976ZM136.848 26.349C136.848 25.197 136.524 24.297 135.876 23.649C135.246 22.983 134.463 22.65 133.527 22.65C132.609 22.65 131.826 22.983 131.178 23.65C130.548 24.315 130.233 25.224 130.233 26.376C130.233 27.528 130.548 28.437 131.178 29.103C131.826 29.769 132.609 30.103 133.527 30.103C134.445 30.103 135.228 29.769 135.876 29.103C136.524 28.419 136.848 27.501 136.848 26.349ZM150.556 34.125C149.08 34.125 147.748 33.81 146.56 33.18C145.398 32.5582 144.435 31.6227 143.779 30.48C143.113 29.31 142.78 27.942 142.78 26.376C142.78 24.828 143.122 23.469 143.806 22.299C144.461 21.1393 145.435 20.1926 146.614 19.572C147.802 18.942 149.134 18.627 150.61 18.627C152.086 18.627 153.418 18.942 154.606 19.572C155.784 20.1926 156.759 21.1393 157.414 22.299C158.098 23.469 158.44 24.829 158.44 26.376C158.44 27.924 158.089 29.292 157.387 30.48C156.72 31.6333 155.736 32.5705 154.552 33.18C153.364 33.81 152.032 34.125 150.556 34.125ZM150.556 30.129C151.438 30.129 152.185 29.805 152.797 29.157C153.427 28.509 153.742 27.582 153.742 26.377C153.742 25.17 153.436 24.243 152.824 23.595C152.547 23.2822 152.206 23.0333 151.824 22.8655C151.441 22.6976 151.027 22.6149 150.61 22.623C149.71 22.623 148.963 22.947 148.369 23.595C147.775 24.225 147.478 25.152 147.478 26.376C147.478 27.582 147.766 28.509 148.342 29.157C148.618 29.4697 148.96 29.7187 149.342 29.8865C149.724 30.0543 150.138 30.1371 150.556 30.129ZM169.53 33.91L166.641 29.724L164.211 33.909H159.216L164.184 26.214L159.081 18.844H164.265L167.154 23L169.584 18.842H174.579L169.53 26.429L174.714 33.909L169.53 33.91Z" fill="white" fill-opacity="0.5"/>
</g>
</g>
<g clip-path="url(#clip4_5_17)">
<g clip-path="url(#clip5_5_17)">
<path opacity="0.8" d="M261.307 11.163L260.01 9.86604C258.713 8.48304 257.33 7.10004 255.602 6.23604C253.613 5.19804 251.452 5.45804 249.292 5.45804H232.952L236.237 9.86604H255.86C257.675 9.86604 259.231 10.212 260.7 11.163C260.96 11.249 261.221 11.249 261.307 11.163Z" fill="white" fill-opacity="0.5"/>
<path opacity="0.9" d="M264.937 18.252L263.64 16.955C262.343 15.572 260.96 14.189 259.231 13.325C257.243 12.287 255.082 12.546 252.921 12.546H238.398L241.683 16.955H259.577C261.393 16.955 262.949 17.301 264.418 18.252C264.498 18.2947 264.587 18.317 264.677 18.317C264.768 18.317 264.857 18.2947 264.937 18.252Z" fill="white" fill-opacity="0.5"/>
<path d="M269 25.167L267.703 23.87C266.407 22.487 265.023 21.104 263.295 20.24C261.306 19.202 259.145 19.461 256.985 19.461H243.671L246.956 23.871H263.553C265.368 23.871 266.924 24.216 268.393 25.167C268.653 25.253 268.827 25.34 269 25.167Z" fill="white" fill-opacity="0.5"/>
<path opacity="0.8" d="M232.605 36.837L233.902 38.134C235.199 39.517 236.582 40.9 238.311 41.764C240.299 42.802 242.461 42.543 244.621 42.543H260.96L257.675 38.134H238.051C236.236 38.134 234.681 37.788 233.211 36.837C232.951 36.751 232.778 36.751 232.606 36.837H232.605Z" fill="white" fill-opacity="0.5"/>
<path opacity="0.9" d="M228.977 29.7481L230.273 31.0451C231.57 32.4281 232.953 33.8111 234.682 34.6751C236.67 35.7131 238.832 35.4541 240.992 35.4541H255.515L252.23 31.0451H234.336C232.521 31.0451 230.965 30.6991 229.496 29.7481C229.416 29.7053 229.327 29.6829 229.236 29.6829C229.145 29.6829 229.057 29.7053 228.977 29.7481Z" fill="white" fill-opacity="0.5"/>
<path d="M225 22.7471L226.297 24.0431C227.593 25.4261 228.977 26.8091 230.705 27.6731C232.694 28.7111 234.855 28.4521 237.015 28.4521H250.328L247.043 24.0431H230.446C228.631 24.0431 227.075 23.6971 225.606 22.7471C225.346 22.6601 225.173 22.6601 225 22.7471ZM278.934 14.0081V34.0001H283.33V25.7401H291.702V22.3241H283.33V17.7041H292.99V14.0081H278.934ZM304.015 25.2081H297.547C297.566 24.9281 297.622 24.6101 297.715 24.2561C297.827 23.9011 298.005 23.5661 298.247 23.2481C298.524 22.9185 298.867 22.6514 299.255 22.4641C299.685 22.2401 300.217 22.1281 300.851 22.1281C301.821 22.1281 302.541 22.3891 303.007 22.9121C303.493 23.4351 303.829 24.2001 304.015 25.2081ZM297.547 27.7281H307.991C308.069 26.6467 307.975 25.5597 307.711 24.5081C307.467 23.5175 307.029 22.585 306.423 21.7641C305.841 20.9582 305.072 20.305 304.183 19.8601C303.269 19.3751 302.195 19.1321 300.963 19.1321C299.862 19.1321 298.853 19.3281 297.939 19.7201C297.062 20.0985 296.272 20.651 295.615 21.3441C294.95 22.0339 294.436 22.8538 294.103 23.7521C293.742 24.7191 293.562 25.744 293.571 26.7761C293.571 27.8961 293.739 28.9221 294.075 29.8561C294.405 30.7491 294.91 31.5676 295.559 32.2641C296.212 32.9482 297.004 33.4831 297.883 33.8321C298.798 34.1871 299.825 34.3641 300.963 34.3641C302.606 34.3641 304.006 33.9911 305.163 33.2441C306.321 32.4971 307.179 31.2561 307.739 29.5201H304.239C304.109 29.9681 303.754 30.3971 303.175 30.8081C302.597 31.2001 301.905 31.3961 301.103 31.3961C299.983 31.3961 299.125 31.1061 298.527 30.5281C297.93 29.9491 297.603 29.0161 297.547 27.7281ZM309.341 23.9761C309.397 23.0431 309.631 22.2681 310.041 21.6521C310.444 21.0442 310.98 20.5366 311.609 20.1681C312.268 19.7858 312.988 19.5206 313.737 19.3841C314.529 19.2172 315.336 19.1328 316.145 19.1321C316.873 19.1321 317.611 19.1881 318.357 19.3001C319.104 19.3931 319.785 19.5901 320.401 19.8881C321.017 20.1861 321.521 20.6061 321.913 21.1481C322.305 21.6711 322.501 22.3711 322.501 23.2481V30.7801C322.501 31.4331 322.539 32.0591 322.613 32.6561C322.688 33.2531 322.819 33.7011 323.005 34.0001H318.973C318.899 33.7786 318.834 33.5544 318.777 33.3281C318.74 33.0865 318.712 32.8437 318.693 32.6001C318.077 33.2424 317.305 33.715 316.453 33.9721C315.6 34.2326 314.713 34.3647 313.821 34.3641C313.131 34.3641 312.487 34.2801 311.889 34.1121C311.319 33.9579 310.786 33.6913 310.321 33.3281C309.868 32.9671 309.504 32.5074 309.257 31.9841C309.015 31.4421 308.893 30.7981 308.893 30.0521C308.893 29.2301 309.033 28.5581 309.313 28.0361C309.612 27.4941 309.985 27.0661 310.433 26.7481C310.9 26.4301 311.423 26.1981 312.001 26.0481C312.59 25.882 313.188 25.7511 313.793 25.6561C314.379 25.5643 314.967 25.4896 315.557 25.4321C316.076 25.386 316.591 25.3018 317.097 25.1801C317.545 25.0681 317.9 24.9101 318.161 24.7041C318.423 24.4801 318.544 24.1631 318.525 23.7521C318.525 23.3221 318.451 22.9871 318.301 22.7441C318.181 22.4937 317.985 22.2878 317.741 22.1561C317.496 21.9994 317.218 21.9034 316.929 21.8761C316.606 21.8178 316.278 21.7897 315.949 21.7921C315.165 21.7921 314.549 21.9601 314.101 22.2961C313.653 22.6321 313.392 23.1921 313.317 23.9761H309.341ZM318.525 26.9161C318.357 27.0661 318.143 27.1861 317.881 27.2801C317.639 27.3551 317.368 27.4201 317.069 27.4761C316.789 27.5321 316.491 27.5781 316.173 27.6161C315.854 27.6535 315.537 27.7002 315.221 27.7561C314.918 27.8129 314.619 27.8877 314.325 27.9801C314.045 28.0731 313.793 28.2041 313.569 28.3721C313.359 28.5275 313.186 28.7285 313.065 28.9601C312.935 29.2021 312.869 29.5101 312.869 29.8841C312.869 30.2381 312.935 30.5371 313.065 30.7801C313.196 31.0221 313.373 31.2181 313.597 31.3681C313.821 31.4981 314.083 31.5921 314.381 31.6481C314.68 31.7041 314.988 31.7321 315.305 31.7321C316.089 31.7321 316.696 31.6021 317.125 31.3401C317.555 31.0781 317.872 30.7701 318.077 30.4161C318.283 30.0431 318.404 29.6691 318.441 29.2961C318.497 28.9231 318.525 28.6241 318.525 28.4001V26.9161ZM329.788 19.5241V15.1841H325.812V19.5241H323.403V22.1841H325.812V30.7241C325.812 31.4521 325.933 32.0401 326.175 32.4881C326.418 32.9361 326.745 33.2811 327.155 33.5241C327.585 33.7661 328.07 33.9251 328.611 34.0001C329.172 34.0931 329.759 34.1401 330.375 34.1401C330.767 34.1401 331.169 34.1301 331.58 34.1121C331.99 34.0931 332.364 34.0561 332.7 34.0001V30.9201C332.505 30.9585 332.309 30.9865 332.111 31.0041C331.897 31.0231 331.682 31.0325 331.467 31.0321C330.795 31.0321 330.348 30.9201 330.124 30.6961C329.9 30.4721 329.788 30.0241 329.788 29.3521V22.1841H332.7V19.5241H329.788ZM333.751 14.0081V34.0001H337.727V26.4121C337.727 24.9371 337.97 23.8821 338.455 23.2481C338.941 22.5941 339.725 22.2681 340.807 22.2681C341.759 22.2681 342.422 22.5671 342.795 23.1641C343.169 23.7421 343.355 24.6291 343.355 25.8241V34.0001H347.331V25.0961C347.331 24.2001 347.247 23.3881 347.079 22.6601C346.93 21.9131 346.659 21.2881 346.267 20.7841C345.875 20.2611 345.334 19.8601 344.643 19.5801C343.971 19.2811 343.103 19.1321 342.039 19.1321C341.293 19.1321 340.527 19.3281 339.743 19.7201C338.959 20.0931 338.315 20.7001 337.811 21.5401H337.727V14.0081H333.751ZM359.253 25.2081H352.785C352.811 24.8862 352.868 24.5675 352.953 24.2561C353.065 23.9011 353.242 23.5661 353.485 23.2481C353.762 22.9184 354.105 22.6512 354.493 22.4641C354.922 22.2401 355.454 22.1281 356.089 22.1281C357.06 22.1281 357.778 22.3891 358.245 22.9121C358.73 23.4351 359.066 24.2001 359.253 25.2081ZM352.785 27.7281H363.229C363.307 26.6467 363.213 25.5597 362.949 24.5081C362.705 23.5175 362.267 22.5849 361.661 21.7641C361.079 20.9582 360.31 20.305 359.421 19.8601C358.506 19.3751 357.433 19.1321 356.201 19.1321C355.1 19.1321 354.092 19.3281 353.177 19.7201C352.3 20.0984 351.51 20.6509 350.853 21.3441C350.189 22.0341 349.674 22.8539 349.341 23.7521C348.98 24.719 348.8 25.744 348.809 26.7761C348.809 27.8961 348.977 28.9221 349.313 29.8561C349.643 30.7493 350.147 31.5679 350.797 32.2641C351.45 32.9482 352.242 33.4831 353.121 33.8321C354.036 34.1871 355.062 34.3641 356.201 34.3641C357.844 34.3641 359.244 33.9911 360.401 33.2441C361.558 32.4971 362.417 31.2561 362.977 29.5201H359.477C359.346 29.9681 358.992 30.3971 358.413 30.8081C357.834 31.2001 357.144 31.3961 356.341 31.3961C355.221 31.3961 354.362 31.1061 353.765 30.5281C353.168 29.9491 352.841 29.0161 352.785 27.7281ZM364.747 19.5241V34.0001H368.723V27.4761C368.723 26.8231 368.788 26.2161 368.919 25.6561C369.05 25.0961 369.264 24.6101 369.563 24.2001C369.88 23.7701 370.291 23.4351 370.795 23.1921C371.299 22.9491 371.915 22.8281 372.643 22.8281C372.886 22.8281 373.138 22.8461 373.399 22.8841C373.66 22.9021 373.884 22.9301 374.071 22.9681V19.2721C373.79 19.1844 373.498 19.1373 373.203 19.1321C372.709 19.1306 372.218 19.2061 371.747 19.3561C371.28 19.5061 370.842 19.7201 370.431 20.0001C370.016 20.265 369.647 20.596 369.339 20.9801C369.025 21.349 368.77 21.7647 368.583 22.2121H368.527V19.5241H364.747Z" fill="white" fill-opacity="0.5"/>
</g>
</g>
<g clip-path="url(#clip6_5_17)">
<g clip-path="url(#clip7_5_17)">
<path fill-rule="evenodd" clip-rule="evenodd" d="M464.89 30.663C465.627 28.6053 466.002 26.4357 466 24.25C466 22 465.609 19.841 464.89 17.838C464.583 19.881 463.887 22.055 462.83 24.25C463.886 26.445 464.583 28.62 464.89 30.663ZM453.41 42.141C451.368 41.834 449.194 41.137 446.999 40.081C444.805 41.137 442.631 41.833 440.589 42.141C442.646 42.8772 444.815 43.2524 447 43.25C449.25 43.25 451.408 42.859 453.41 42.141ZM443.705 38.228C443.042 38.475 442.389 38.681 441.752 38.844C437.839 39.851 435.099 39.181 433.605 37.724C433.578 37.6974 433.551 37.6708 433.524 37.644C432.067 36.15 431.398 33.41 432.404 29.497C432.569 28.86 432.774 28.207 433.021 27.544C434.403 29.6738 436.007 31.6508 437.806 33.442C439.598 35.2416 441.575 36.846 443.705 38.228ZM447 36.705C444.619 35.39 442.196 33.589 439.929 31.321C437.661 29.053 435.86 26.631 434.545 24.251C435.86 21.869 437.661 19.446 439.929 17.179C442.197 14.911 444.619 13.11 447 11.795C449.38 13.11 451.803 14.911 454.07 17.179C456.339 19.446 458.14 21.869 459.455 24.25C458.14 26.631 456.339 29.053 454.071 31.32C451.804 33.589 449.381 35.39 447 36.705ZM450.294 38.228C452.424 36.8459 454.402 35.2416 456.193 33.442C457.992 31.6508 459.596 29.6738 460.978 27.544C461.225 28.208 461.431 28.86 461.594 29.497C462.61 33.447 461.919 36.2 460.434 37.685C458.95 39.169 456.196 39.86 452.247 38.845C451.61 38.681 450.957 38.475 450.294 38.228ZM460.978 20.956C461.225 20.293 461.431 19.64 461.595 19.003C462.61 15.053 461.92 12.299 460.435 10.815C458.951 9.33002 456.197 8.64002 452.247 9.65502C451.61 9.81902 450.957 10.025 450.294 10.272C452.424 11.6539 454.401 13.2578 456.192 15.057C457.992 16.8488 459.596 18.8265 460.978 20.957V20.956ZM447 8.42002C449.195 7.36402 451.369 6.66702 453.41 6.36002C451.353 5.62362 449.185 5.2481 447 5.25002C444.75 5.25002 442.592 5.64002 440.59 6.35902C442.631 6.66602 444.805 7.36302 446.999 8.41902L447 8.42002ZM433.485 10.898L433.647 10.736C435.149 9.30602 437.875 8.65902 441.753 9.65602C442.39 9.82002 443.043 10.026 443.706 10.273C441.576 11.6549 439.599 13.2589 437.808 15.058C436.008 16.8498 434.404 18.8275 433.022 20.958C432.783 20.3179 432.577 19.6656 432.405 19.004C431.408 15.126 432.055 12.401 433.485 10.898ZM429.109 17.843C428.373 19.8989 427.998 22.0664 428 24.25C428 26.5 428.39 28.657 429.108 30.66C429.416 28.618 430.112 26.444 431.168 24.25C430.112 22.057 429.416 19.883 429.108 17.842L429.109 17.843ZM431.329 8.81202C427.268 12.9231 424.993 18.4711 425 24.25C424.996 27.1396 425.563 30.0014 426.669 32.671C427.775 35.3406 429.397 37.7654 431.443 39.806L431.501 39.864C435.618 43.9611 441.192 46.2578 447 46.25C459.15 46.25 469 36.4 469 24.25C469 12.1 459.15 2.25002 447 2.25002C444.083 2.2461 441.194 2.82428 438.503 3.9507C435.812 5.07712 433.373 6.72914 431.328 8.81002L431.329 8.81202Z" fill="white" fill-opacity="0.5"/>
<path d="M487.849 34.2401C492.559 34.2401 495.739 31.7801 495.739 27.8501C495.739 19.5401 484.699 23.0801 484.699 18.7001C484.699 17.4701 485.809 16.6301 487.579 16.6301C489.589 16.6301 490.849 17.7101 490.999 19.3601H495.289C495.169 15.3701 492.109 12.7601 487.579 12.7601C483.319 12.7601 480.319 15.2201 480.319 18.7001C480.319 26.9501 491.209 23.8001 491.209 27.9101C491.209 29.5001 489.859 30.3401 487.849 30.3401C485.629 30.3401 484.219 28.9901 484.039 26.8601H479.719C479.899 31.3301 483.079 34.2401 487.849 34.2401ZM496.759 40.1201H500.929V32.6501C501.739 33.6701 503.209 34.2401 504.919 34.2401C509.269 34.2401 512.209 31.1501 512.209 26.4401C512.209 21.7301 509.509 18.6401 505.279 18.6401C503.329 18.6401 501.829 19.3601 500.929 20.5301V18.8801H496.759V40.1201ZM504.409 30.6401C502.159 30.6401 500.689 28.9601 500.689 26.4401C500.689 23.8901 502.159 22.2101 504.409 22.2101C506.599 22.2101 508.099 23.8901 508.099 26.4401C508.099 28.9601 506.599 30.6401 504.409 30.6401ZM513.218 34.0001H517.388V25.7201C517.388 23.7701 518.678 22.3601 520.508 22.3601C522.248 22.3601 523.448 23.6801 523.448 25.5101V34.0001H527.618V24.5801C527.618 21.1001 525.398 18.6401 522.008 18.6401C519.908 18.6401 518.258 19.5101 517.388 20.9801V12.3101H513.218V34.0001ZM539.283 28.8701C538.953 30.1601 537.843 30.8201 536.163 30.8201C534.063 30.8201 532.713 29.5001 532.413 27.3701H543.273C543.303 27.0401 543.333 26.5901 543.333 26.0201C543.333 22.5701 541.203 18.6401 535.863 18.6401C530.733 18.6401 528.393 22.5701 528.393 26.4101C528.393 30.2201 531.033 34.2401 536.163 34.2401C539.883 34.2401 542.763 32.1401 543.363 28.8701H539.283ZM535.863 21.7001C537.873 21.7001 539.043 23.0501 539.163 24.7301H532.473C532.833 22.6301 533.973 21.7001 535.863 21.7001ZM554.27 22.3601V18.8801H552.118C550.288 18.8801 549.148 19.5101 548.338 21.4001V18.8801H544.138V34.0001H548.338V26.6501C548.338 24.0701 549.268 22.3601 551.338 22.3601H554.27ZM568.67 18.8801H564.47V27.1601C564.47 29.0801 563.18 30.5201 561.35 30.5201C559.64 30.5201 558.44 29.2001 558.44 27.3701V18.8801H554.27V28.3001C554.27 31.7501 556.49 34.2401 559.88 34.2401C561.95 34.2401 563.63 33.3401 564.47 31.9001V34.0001H568.67V18.8801ZM570.47 34.0001H574.64V12.3101H570.47V34.0001ZM586.545 28.8701C586.215 30.1601 585.105 30.8201 583.425 30.8201C581.325 30.8201 579.975 29.5001 579.675 27.3701H590.535C590.565 27.0401 590.595 26.5901 590.595 26.0201C590.595 22.5701 588.465 18.6401 583.125 18.6401C577.995 18.6401 575.655 22.5701 575.655 26.4101C575.655 30.2201 578.295 34.2401 583.425 34.2401C587.145 34.2401 590.025 32.1401 590.625 28.8701H586.545ZM583.125 21.7001C585.135 21.7001 586.305 23.0501 586.425 24.7301H579.735C580.095 22.6301 581.235 21.7001 583.125 21.7001Z" fill="white" fill-opacity="0.5"/>
</g>
</g>
<g clip-path="url(#clip8_5_17)">
<g clip-path="url(#clip9_5_17)">
<path d="M680.429 2H663.57L650 15.571V32.43L663.571 46H680.43L694 32.429V15.57L680.429 2ZM665.904 32.641L657.21 23.947L665.904 15.253C669.19 11.966 674.598 11.966 677.884 15.253L686.578 23.947L677.884 32.641C674.598 35.928 669.296 35.928 665.904 32.641ZM713.34 34.24C716.04 34.24 718.26 32.86 718.95 30.79V34H722.94V25.9C722.94 24.07 721.5 22.51 719.55 22.51H713.85V25.9H717.9C718.41 25.9 718.74 26.23 718.74 26.74C718.74 28.69 716.16 30.58 713.55 30.58C710.07 30.58 707.31 27.85 707.31 23.5C707.31 19.15 710.07 16.63 713.64 16.63C716.34 16.63 718.2 18.1 718.53 20.35H723C722.73 15.85 718.95 12.76 713.67 12.76C708.12 12.76 703.02 16.33 703.02 23.5C703.02 30.67 707.97 34.24 713.34 34.24ZM724.652 34H728.822V12.31H724.652V34ZM737.817 34.24C742.467 34.24 745.797 30.94 745.797 26.44C745.797 21.94 742.467 18.64 737.817 18.64C733.167 18.64 729.837 21.94 729.837 26.44C729.837 30.94 733.167 34.24 737.817 34.24ZM737.817 30.64C735.567 30.64 734.037 28.93 734.037 26.44C734.037 23.92 735.567 22.21 737.817 22.21C740.067 22.21 741.597 23.92 741.597 26.44C741.597 28.93 740.067 30.64 737.817 30.64ZM755.128 34.24C759.598 34.24 762.268 31.15 762.268 26.44C762.268 21.73 759.598 18.64 755.188 18.64C753.298 18.64 751.828 19.36 750.988 20.47V12.31H746.818V34H750.988V32.35C751.828 33.52 753.388 34.24 755.128 34.24ZM754.468 30.64C752.218 30.64 750.748 28.96 750.748 26.44C750.748 23.89 752.218 22.21 754.468 22.21C756.658 22.21 758.158 23.89 758.158 26.44C758.158 28.96 756.658 30.64 754.468 30.64ZM769.249 18.64C765.109 18.64 762.649 21.07 762.469 24.1H766.189C766.249 22.84 767.179 21.7 769.009 21.7C770.719 21.7 771.709 22.57 771.709 23.83C771.709 24.46 771.319 24.94 770.569 24.94H768.019C764.719 24.94 762.499 26.74 762.499 29.71C762.499 32.29 764.509 34.24 767.449 34.24C769.519 34.24 771.199 33.31 771.709 31.9V34H775.849V24.28C775.849 20.86 773.059 18.64 769.249 18.64ZM768.499 31.21C767.329 31.21 766.489 30.52 766.489 29.53C766.489 28.36 767.389 27.58 768.649 27.58H771.709V27.79C771.709 29.71 770.539 31.21 768.499 31.21ZM777.451 34H781.621V12.31H777.451V34Z" fill="white" fill-opacity="0.5"/>
</g>
</g>
<g clip-path="url(#clip10_5_17)">
<g clip-path="url(#clip11_5_17)">
<mask id="mask0_5_17" style="mask-type:luminance" maskUnits="userSpaceOnUse" x="833" y="2" width="44" height="44">
<path d="M833 2H877V46H833V2Z" fill="white"/>
</mask>
<g mask="url(#mask0_5_17)">
<path d="M860.268 4.12097L856.048 2.99097L852.491 16.265L849.279 4.27997L845.059 5.41097L848.529 18.36L839.886 9.71797L836.796 12.808L846.276 22.287L834.47 19.124L833.339 23.344L846.237 26.801C845.939 25.5198 845.935 24.188 846.224 22.9049C846.513 21.6218 847.088 20.4205 847.905 19.3904C848.723 18.3603 849.763 17.528 850.947 16.9557C852.131 16.3833 853.429 16.0855 854.744 16.0846C856.06 16.0837 857.358 16.3796 858.543 16.9503C859.728 17.521 860.769 18.3518 861.588 19.3807C862.407 20.4097 862.984 21.6102 863.274 22.8929C863.565 24.1756 863.562 25.5074 863.267 26.789L874.989 29.929L876.119 25.709L863.171 22.239L874.976 19.075L873.845 14.855L860.896 18.325L869.538 9.68197L866.448 6.59197L857.101 15.94L860.268 4.12097Z" fill="white" fill-opacity="0.5"/>
<path d="M863.256 26.8379C862.899 28.3421 862.148 29.7243 861.081 30.8429L869.574 39.3349L872.664 36.2449L863.256 26.8379ZM860.996 30.9319C859.92 32.0322 858.573 32.8287 857.091 33.2409L860.181 44.7729L864.401 43.6419L860.996 30.9319ZM856.933 33.2829C856.22 33.4659 855.487 33.5583 854.751 33.5579C853.944 33.5579 853.161 33.4479 852.42 33.2429L849.327 44.7859L853.547 45.9169L856.933 33.2829ZM852.27 33.1999C850.809 32.7671 849.486 31.9597 848.434 30.8579L839.92 39.3699L843.01 42.4599L852.27 33.1999ZM848.364 30.7819C847.324 29.6708 846.593 28.307 846.244 26.8259L834.484 29.9779L835.614 34.1979L848.364 30.7819Z" fill="white" fill-opacity="0.5"/>
</g>
<path d="M901.521 12.91V28.12L891.771 12.91H887.871V33.91H891.771V18.82L901.521 33.91H905.421V12.91H901.521ZM907.178 16.84H911.198V12.91H907.178V16.84ZM907.238 33.91V18.91H911.138V33.91H907.238ZM927.918 26.41C927.918 21.22 924.228 18.76 920.328 18.73C916.398 18.7 912.768 21.22 912.768 26.41C912.768 31.6 916.398 34.12 920.328 34.09C923.898 34.06 926.358 32.41 927.498 29.68L924.468 28.42C923.538 30.28 922.068 30.94 920.328 30.97C918.828 31 917.118 30.28 916.758 27.61H927.828C927.888 27.22 927.918 26.83 927.918 26.41ZM920.328 21.82C921.828 21.85 923.358 22.66 923.838 24.82H916.818C917.328 22.63 918.858 21.79 920.328 21.82ZM936.932 21.7V18.73H934.472V14.71L930.572 15.91V18.73H928.112V21.7H930.572V29.47C930.572 32.41 930.812 33.91 935.372 33.91H936.422V30.49H935.372C934.652 30.49 934.472 30.37 934.472 29.47V21.7H936.932ZM942.727 30.64L951.007 22.18V18.91H938.587V22.18H946.627L938.347 30.64V33.91H951.097V30.64H942.727ZM952.495 29.68L956.425 29.08C956.695 30.58 958.465 31.15 959.545 31.15C960.655 31.15 962.575 30.91 962.575 29.11C962.575 25.6 952.945 29.98 952.945 23.26C952.945 18.94 957.955 18.7 959.545 18.7C961.045 18.7 965.395 18.94 966.295 22.42L962.575 23.2C962.245 21.61 960.565 21.31 959.665 21.31C958.765 21.31 956.845 21.52 956.845 23.26C956.845 26.74 966.475 22.3 966.475 29.11C966.475 33.7 961.195 34.09 959.545 34.09C958.045 34.09 953.275 33.7 952.495 29.68ZM971.542 26.41C971.542 30.07 973.492 31.18 975.532 31.15C977.362 31.12 978.622 30.37 979.372 28.27L982.582 29.83C981.412 32.89 978.562 34.06 975.532 34.09C971.602 34.12 967.642 31.6 967.642 26.41C967.642 21.22 971.602 18.7 975.532 18.73C978.562 18.76 981.412 19.93 982.582 22.99L979.372 24.55C978.622 22.45 977.362 21.7 975.532 21.67C973.492 21.64 971.542 22.75 971.542 26.41ZM993.051 18.67C991.041 18.67 989.211 19.72 988.041 21.97V12.91H984.141V33.91H988.041V28.6C988.041 21.73 990.891 21.16 991.941 21.16C993.621 21.16 993.861 22.9 993.861 25.45V33.91H997.761V25.45C997.761 22.27 997.251 18.67 993.051 18.67ZM1014.23 26.41C1014.23 21.22 1010.54 18.76 1006.64 18.73C1002.71 18.7 999.077 21.22 999.077 26.41C999.077 31.6 1002.71 34.12 1006.64 34.09C1010.21 34.06 1012.67 32.41 1013.81 29.68L1010.78 28.42C1009.85 30.28 1008.38 30.94 1006.64 30.97C1005.14 31 1003.43 30.28 1003.07 27.61H1014.14C1014.2 27.22 1014.23 26.83 1014.23 26.41ZM1006.64 21.82C1008.14 21.85 1009.67 22.66 1010.15 24.82H1003.13C1003.64 22.63 1005.17 21.79 1006.64 21.82Z" fill="white" fill-opacity="0.5"/>
</g>
</g>
<g clip-path="url(#clip12_5_17)">
<g clip-path="url(#clip13_5_17)">
<path fill-rule="evenodd" clip-rule="evenodd" d="M1069 46C1081.15 46 1091 36.15 1091 24C1091 11.85 1081.15 2 1069 2C1056.85 2 1047 11.85 1047 24C1047 36.15 1056.85 46 1069 46ZM1075.86 12.248C1076.2 11.062 1075.05 10.36 1073.99 11.109L1059.31 21.57C1058.17 22.382 1058.35 24.001 1059.58 24.001H1063.45V23.971H1070.98L1064.84 26.137L1062.14 35.753C1061.8 36.939 1062.95 37.641 1064.01 36.892L1078.69 26.432C1079.83 25.62 1079.65 24.001 1078.42 24.001H1072.56L1075.86 12.248Z" fill="white" fill-opacity="0.5"/>
<path d="M1102.38 33.91V30.43H1105.14V16.39H1102.38V12.91H1113.18C1114.46 12.91 1115.57 13.13 1116.51 13.57C1117.47 13.99 1118.21 14.6 1118.73 15.4C1119.27 16.18 1119.54 17.12 1119.54 18.22V18.52C1119.54 19.48 1119.36 20.27 1119 20.89C1118.64 21.49 1118.21 21.96 1117.71 22.3C1117.23 22.62 1116.77 22.85 1116.33 22.99V23.53C1116.77 23.65 1117.25 23.88 1117.77 24.22C1118.29 24.54 1118.73 25.01 1119.09 25.63C1119.47 26.25 1119.66 27.06 1119.66 28.06V28.36C1119.66 29.52 1119.39 30.52 1118.85 31.36C1118.31 32.18 1117.56 32.81 1116.6 33.25C1115.66 33.69 1114.56 33.91 1113.3 33.91H1102.38ZM1109.1 30.31H1112.82C1113.68 30.31 1114.37 30.1 1114.89 29.68C1115.43 29.26 1115.7 28.66 1115.7 27.88V27.58C1115.7 26.8 1115.44 26.2 1114.92 25.78C1114.4 25.36 1113.7 25.15 1112.82 25.15H1109.1V30.31ZM1109.1 21.55H1112.76C1113.58 21.55 1114.25 21.34 1114.77 20.92C1115.31 20.5 1115.58 19.92 1115.58 19.18V18.88C1115.58 18.12 1115.32 17.54 1114.8 17.14C1114.28 16.72 1113.6 16.51 1112.76 16.51H1109.1V21.55ZM1128.6 34.33C1127.12 34.33 1125.79 34.03 1124.61 33.43C1123.45 32.8468 1122.48 31.9405 1121.82 30.82C1121.14 29.68 1120.8 28.31 1120.8 26.71V26.23C1120.8 24.63 1121.14 23.26 1121.82 22.12C1122.48 20.9995 1123.45 20.0932 1124.61 19.51C1125.79 18.91 1127.12 18.61 1128.6 18.61C1130.08 18.61 1131.41 18.91 1132.59 19.51C1133.75 20.0932 1134.72 20.9995 1135.38 22.12C1136.06 23.26 1136.4 24.63 1136.4 26.23V26.71C1136.4 28.31 1136.06 29.68 1135.38 30.82C1134.72 31.9405 1133.75 32.8468 1132.59 33.43C1131.41 34.03 1130.08 34.33 1128.6 34.33ZM1128.6 30.97C1129.76 30.97 1130.72 30.6 1131.48 29.86C1132.24 29.1 1132.62 28.02 1132.62 26.62V26.32C1132.62 24.92 1132.24 23.85 1131.48 23.11C1130.74 22.35 1129.78 21.97 1128.6 21.97C1127.44 21.97 1126.48 22.35 1125.72 23.11C1124.96 23.85 1124.58 24.92 1124.58 26.32V26.62C1124.58 28.02 1124.96 29.1 1125.72 29.86C1126.48 30.6 1127.44 30.97 1128.6 30.97ZM1138.39 33.91V12.91H1142.17V33.91H1138.39ZM1150.56 33.91C1149.58 33.91 1148.78 33.61 1148.16 33.01C1147.56 32.39 1147.26 31.57 1147.26 30.55V22.15H1143.54V19.03H1147.26V14.41H1151.04V19.03H1155.12V22.15H1151.04V29.89C1151.04 30.49 1151.32 30.79 1151.88 30.79H1154.76V33.91H1150.56ZM1163.22 34.33C1161.28 34.33 1159.69 33.91 1158.45 33.07C1157.21 32.23 1156.46 31.03 1156.2 29.47L1159.68 28.57C1159.82 29.27 1160.05 29.82 1160.37 30.22C1160.71 30.62 1161.12 30.91 1161.6 31.09C1162.1 31.25 1162.64 31.33 1163.22 31.33C1164.1 31.33 1164.75 31.18 1165.17 30.88C1165.59 30.56 1165.8 30.17 1165.8 29.71C1165.8 29.25 1165.6 28.9 1165.2 28.66C1164.8 28.4 1164.16 28.19 1163.28 28.03L1162.44 27.88C1161.4 27.68 1160.45 27.41 1159.59 27.07C1158.73 26.71 1158.04 26.22 1157.52 25.6C1157 24.98 1156.74 24.18 1156.74 23.2C1156.74 21.72 1157.28 20.59 1158.36 19.81C1159.44 19.01 1160.86 18.61 1162.62 18.61C1164.28 18.61 1165.66 18.98 1166.76 19.72C1167.86 20.46 1168.58 21.43 1168.92 22.63L1165.41 23.71C1165.25 22.95 1164.92 22.41 1164.42 22.09C1163.94 21.77 1163.34 21.61 1162.62 21.61C1161.9 21.61 1161.35 21.74 1160.97 22C1160.59 22.24 1160.4 22.58 1160.4 23.02C1160.4 23.5 1160.6 23.86 1161 24.1C1161.4 24.32 1161.94 24.49 1162.62 24.61L1163.46 24.76C1164.58 24.96 1165.59 25.23 1166.49 25.57C1167.41 25.89 1168.13 26.36 1168.65 26.98C1169.19 27.58 1169.46 28.4 1169.46 29.44C1169.46 31 1168.89 32.21 1167.75 33.07C1166.63 33.91 1165.12 34.33 1163.22 34.33ZM1171.27 33.91V12.91H1175.05V20.86H1175.59C1175.75 20.54 1176 20.22 1176.34 19.9C1176.68 19.58 1177.13 19.32 1177.69 19.12C1178.27 18.9 1179 18.79 1179.88 18.79C1181.04 18.79 1182.05 19.06 1182.91 19.6C1183.79 20.12 1184.47 20.85 1184.95 21.79C1185.43 22.71 1185.67 23.79 1185.67 25.03V33.91H1181.89V25.33C1181.89 24.21 1181.61 23.37 1181.05 22.81C1180.51 22.25 1179.73 21.97 1178.71 21.97C1177.55 21.97 1176.65 22.36 1176.01 23.14C1175.37 23.9 1175.05 24.97 1175.05 26.35V33.91H1171.27ZM1188.26 33.91V19.03H1192.04V33.91H1188.26ZM1190.15 17.29C1189.47 17.29 1188.89 17.07 1188.41 16.63C1187.95 16.19 1187.72 15.61 1187.72 14.89C1187.72 14.17 1187.95 13.59 1188.41 13.15C1188.89 12.71 1189.47 12.49 1190.15 12.49C1190.85 12.49 1191.43 12.71 1191.89 13.15C1192.35 13.59 1192.58 14.17 1192.58 14.89C1192.58 15.61 1192.35 16.19 1191.89 16.63C1191.43 17.07 1190.85 17.29 1190.15 17.29ZM1197.19 33.91V22.15H1193.41V19.03H1197.19V16.27C1197.19 15.25 1197.49 14.44 1198.09 13.84C1198.71 13.22 1199.51 12.91 1200.49 12.91H1204.39V16.03H1201.81C1201.25 16.03 1200.97 16.33 1200.97 16.93V19.03H1204.87V22.15H1200.97V33.91H1197.19Z" fill="white" fill-opacity="0.5"/>
<path d="M1211.7 33.91C1210.72 33.91 1209.92 33.61 1209.3 33.01C1208.7 32.39 1208.4 31.57 1208.4 30.55V22.15H1204.68V19.03H1208.4V14.41H1212.18V19.03H1216.26V22.15H1212.18V29.89C1212.18 30.49 1212.46 30.79 1213.02 30.79H1215.9V33.91H1211.7Z" fill="white" fill-opacity="0.5"/>
</g>
</g>
<g clip-path="url(#clip14_5_17)">
<g clip-path="url(#clip15_5_17)">
<path fill-rule="evenodd" clip-rule="evenodd" d="M1275.77 3.44804C1275.26 3.34431 1274.74 3.34431 1274.24 3.44804C1273.65 3.56804 1273.13 3.86004 1272.72 4.09304L1272.6 4.15604L1258.54 11.966L1258.42 12.033C1257.98 12.275 1257.43 12.579 1257.01 13.039C1256.64 13.4369 1256.36 13.9084 1256.19 14.422C1256 15.016 1256 15.646 1256 16.148V31.844C1256 32.345 1256 32.975 1256.19 33.57C1256.36 34.0836 1256.64 34.5551 1257.01 34.953C1257.43 35.413 1257.98 35.717 1258.42 35.959L1258.54 36.025L1272.6 43.835L1272.71 43.899C1273.13 44.131 1273.65 44.424 1274.23 44.544C1274.74 44.6479 1275.26 44.6479 1275.77 44.544C1276.35 44.424 1276.87 44.131 1277.29 43.899L1277.4 43.836L1291.46 36.025C1291.5 36.0028 1291.54 35.9808 1291.58 35.959C1292.02 35.717 1292.57 35.413 1292.99 34.953C1293.36 34.5551 1293.64 34.0836 1293.81 33.57C1294 32.975 1294 32.345 1294 31.844V16.148C1294 15.646 1294 15.016 1293.81 14.422C1293.64 13.9084 1293.36 13.4369 1292.99 13.039C1292.57 12.579 1292.02 12.275 1291.58 12.033L1291.46 11.967L1277.4 4.15604L1277.29 4.09304C1276.87 3.86004 1276.35 3.56804 1275.77 3.44804H1275.77ZM1274.45 7.47804C1274.73 7.31804 1274.88 7.23704 1274.99 7.18404L1275 7.18004L1275.01 7.18404C1275.12 7.23704 1275.27 7.31804 1275.55 7.47804L1288.19 14.496L1275 21.822L1261.81 14.496L1274.45 7.47804ZM1259.8 17.725L1273.1 25.114V39.766L1260.39 32.703C1260.08 32.534 1259.93 32.447 1259.82 32.378L1259.81 32.372V32.362C1259.8 32.1438 1259.8 31.9254 1259.8 31.707V17.725Z" fill="white" fill-opacity="0.5"/>
<path d="M1311.29 30.345H1317.34V33.909H1306.68V14.955H1311.29V30.345ZM1321.59 17.277C1320.78 17.277 1320.12 17.043 1319.6 16.575C1319.35 16.3475 1319.16 16.0713 1319.03 15.7643C1318.9 15.4573 1318.83 15.1264 1318.84 14.793C1318.84 14.073 1319.09 13.479 1319.6 13.011C1320.12 12.525 1320.78 12.282 1321.59 12.282C1322.39 12.282 1323.03 12.525 1323.54 13.012C1324.06 13.479 1324.32 14.073 1324.32 14.793C1324.32 15.495 1324.06 16.089 1323.54 16.575C1323.03 17.043 1322.39 17.277 1321.59 17.277ZM1323.89 18.843V33.91H1319.27V18.843H1323.89ZM1332.69 18.627C1333.75 18.627 1334.68 18.843 1335.47 19.275C1336.28 19.707 1336.9 20.275 1337.33 20.976V18.843H1341.95V33.883C1341.95 35.268 1341.67 36.519 1341.11 37.635C1340.57 38.769 1339.74 39.669 1338.6 40.335C1337.49 41.001 1336.09 41.335 1334.42 41.335C1332.19 41.335 1330.38 40.803 1328.99 39.741C1327.6 38.697 1326.81 37.275 1326.61 35.475H1331.18C1331.32 36.051 1331.66 36.501 1332.2 36.825C1332.74 37.167 1333.41 37.338 1334.2 37.338C1335.16 37.338 1335.91 37.059 1336.47 36.501C1337.05 35.961 1337.33 35.088 1337.33 33.882V31.75C1336.88 32.452 1336.26 33.028 1335.47 33.478C1334.68 33.91 1333.75 34.126 1332.69 34.126C1331.45 34.126 1330.32 33.811 1329.31 33.181C1328.31 32.533 1327.5 31.624 1326.91 30.454C1326.34 29.266 1326.05 27.898 1326.05 26.35C1326.05 24.802 1326.34 23.443 1326.91 22.273C1327.51 21.103 1328.31 20.203 1329.31 19.573C1330.32 18.943 1331.45 18.627 1332.69 18.627ZM1337.33 26.377C1337.33 25.224 1337.01 24.315 1336.36 23.649C1336.07 23.3272 1335.71 23.0717 1335.31 22.8995C1334.91 22.7273 1334.48 22.6422 1334.04 22.65C1333.12 22.65 1332.34 22.983 1331.69 23.65C1331.06 24.297 1330.75 25.197 1330.75 26.35C1330.75 27.501 1331.06 28.42 1331.69 29.103C1332.34 29.769 1333.12 30.103 1334.04 30.103C1334.96 30.103 1335.73 29.769 1336.36 29.103C1337.01 28.437 1337.33 27.528 1337.33 26.376V26.377ZM1354.28 18.681C1356.01 18.681 1357.4 19.257 1358.44 20.409C1359.48 21.543 1360.01 23.109 1360.01 25.107V33.909H1355.42V25.729C1355.42 24.72 1355.15 23.937 1354.63 23.379C1354.11 22.821 1353.41 22.542 1352.53 22.542C1351.64 22.542 1350.94 22.822 1350.42 23.379C1349.9 23.937 1349.64 24.72 1349.64 25.729V33.909H1345.02V13.93H1349.64V20.87C1350.11 20.203 1350.74 19.672 1351.55 19.276C1352.36 18.88 1353.27 18.681 1354.28 18.681ZM1371.34 29.994V33.909H1368.99C1367.32 33.909 1366.01 33.504 1365.08 32.694C1364.14 31.866 1363.67 30.525 1363.67 28.671V22.677H1361.84V18.843H1363.67V15.171H1368.29V18.843H1371.31V22.677H1368.29V28.725C1368.29 29.175 1368.4 29.499 1368.61 29.697C1368.83 29.895 1369.19 29.994 1369.69 29.994H1371.34ZM1378.26 20.976C1378.69 20.274 1379.31 19.707 1380.12 19.276C1380.93 18.843 1381.86 18.627 1382.9 18.627C1384.15 18.627 1385.27 18.942 1386.28 19.572C1387.29 20.202 1388.08 21.102 1388.65 22.272C1389.25 23.442 1389.55 24.802 1389.55 26.349C1389.55 27.897 1389.25 29.265 1388.65 30.453C1388.08 31.623 1387.29 32.533 1386.28 33.18C1385.27 33.81 1384.15 34.125 1382.9 34.125C1381.84 34.125 1380.91 33.918 1380.12 33.505C1379.33 33.072 1378.71 32.505 1378.26 31.803V33.909H1373.64V13.93H1378.26V20.976ZM1384.85 26.349C1384.85 25.197 1384.52 24.297 1383.88 23.649C1383.25 22.983 1382.46 22.65 1381.53 22.65C1380.61 22.65 1379.83 22.983 1379.18 23.65C1378.55 24.315 1378.23 25.224 1378.23 26.376C1378.23 27.528 1378.55 28.437 1379.18 29.103C1379.83 29.769 1380.61 30.103 1381.53 30.103C1382.44 30.103 1383.23 29.769 1383.88 29.103C1384.52 28.419 1384.85 27.501 1384.85 26.349ZM1398.56 34.125C1397.08 34.125 1395.75 33.81 1394.56 33.18C1393.4 32.5582 1392.43 31.6227 1391.78 30.48C1391.11 29.31 1390.78 27.942 1390.78 26.376C1390.78 24.828 1391.12 23.469 1391.81 22.299C1392.46 21.1393 1393.44 20.1926 1394.61 19.572C1395.8 18.942 1397.13 18.627 1398.61 18.627C1400.09 18.627 1401.42 18.942 1402.61 19.572C1403.78 20.1926 1404.76 21.1393 1405.41 22.299C1406.1 23.469 1406.44 24.829 1406.44 26.376C1406.44 27.924 1406.09 29.292 1405.39 30.48C1404.72 31.6333 1403.74 32.5705 1402.55 33.18C1401.36 33.81 1400.03 34.125 1398.56 34.125ZM1398.56 30.129C1399.44 30.129 1400.18 29.805 1400.8 29.157C1401.43 28.509 1401.74 27.582 1401.74 26.377C1401.74 25.17 1401.44 24.243 1400.82 23.595C1400.55 23.2822 1400.21 23.0333 1399.82 22.8655C1399.44 22.6976 1399.03 22.6149 1398.61 22.623C1397.71 22.623 1396.96 22.947 1396.37 23.595C1395.77 24.225 1395.48 25.152 1395.48 26.376C1395.48 27.582 1395.77 28.509 1396.34 29.157C1396.62 29.4697 1396.96 29.7187 1397.34 29.8865C1397.72 30.0543 1398.14 30.1371 1398.56 30.129ZM1417.53 33.91L1414.64 29.724L1412.21 33.909H1407.22L1412.18 26.214L1407.08 18.844H1412.26L1415.15 23L1417.58 18.842H1422.58L1417.53 26.429L1422.71 33.909L1417.53 33.91Z" fill="white" fill-opacity="0.5"/>
</g>
</g>
</g>
</g>
<defs>
<clipPath id="clip0_5_17">
<rect width="1312" height="48" fill="white"/>
</clipPath>
<clipPath id="clip1_5_17">
<rect width="1312" height="48" fill="white"/>
</clipPath>
<clipPath id="clip2_5_17">
<rect width="184" height="48" fill="white"/>
</clipPath>
<clipPath id="clip3_5_17">
<rect width="184" height="48" fill="white"/>
</clipPath>
<clipPath id="clip4_5_17">
<rect width="184" height="48" fill="white" transform="translate(208)"/>
</clipPath>
<clipPath id="clip5_5_17">
<rect width="184" height="48" fill="white" transform="translate(208)"/>
</clipPath>
<clipPath id="clip6_5_17">
<rect width="184" height="48" fill="white" transform="translate(416)"/>
</clipPath>
<clipPath id="clip7_5_17">
<rect width="184" height="48" fill="white" transform="translate(416)"/>
</clipPath>
<clipPath id="clip8_5_17">
<rect width="184" height="48" fill="white" transform="translate(624)"/>
</clipPath>
<clipPath id="clip9_5_17">
<rect width="184" height="48" fill="white" transform="translate(624)"/>
</clipPath>
<clipPath id="clip10_5_17">
<rect width="184" height="48" fill="white" transform="translate(832)"/>
</clipPath>
<clipPath id="clip11_5_17">
<rect width="184" height="48" fill="white" transform="translate(832)"/>
</clipPath>
<clipPath id="clip12_5_17">
<rect width="184" height="48" fill="white" transform="translate(1040)"/>
</clipPath>
<clipPath id="clip13_5_17">
<rect width="184" height="48" fill="white" transform="translate(1040)"/>
</clipPath>
<clipPath id="clip14_5_17">
<rect width="184" height="48" fill="white" transform="translate(1248)"/>
</clipPath>
<clipPath id="clip15_5_17">
<rect width="184" height="48" fill="white" transform="translate(1248)"/>
</clipPath>
</defs>
</svg>
