<svg width="809" height="68" viewBox="0 0 809 68" fill="none" xmlns="http://www.w3.org/2000/svg">
<g clip-path="url(#clip0_5_458)">
<rect x="10" width="68" height="68" rx="16" fill="white" fill-opacity="0.05"/>
<g clip-path="url(#clip1_5_458)">
<g clip-path="url(#clip2_5_458)">
<path d="M31.6992 34.2775V19.2871L39.9496 19.3078L48.2001 19.3284L48.9058 19.5052C52.3277 20.3622 54.8375 22.5478 56.0656 25.7402C56.3613 26.5086 56.6324 27.7537 56.6822 28.5714L56.7229 29.2383H54.2299H51.737L51.6982 28.919C51.5694 27.8581 51.2347 27.0129 50.6351 26.2335C50.0353 25.4541 49.1328 24.8221 48.1329 24.4813L47.5952 24.2981L42.1677 24.279L36.7402 24.2599V34.277V44.294H39.2271H41.714V46.7809V49.2678H36.7066H31.6992V34.2775Z" fill="#13A3D7"/>
<path d="M45.4766 46.801V44.3147L46.3671 44.2694C46.857 44.2445 47.4492 44.1792 47.6833 44.1243C49.1201 43.787 50.5115 42.6884 51.1594 41.3794C51.7014 40.2845 51.6819 40.4571 51.71 36.5143L51.7351 33.0024H54.2221H56.7092L56.6838 36.8168L56.6585 40.6311L56.4846 41.3368C55.9959 43.3202 55.1478 44.8378 53.743 46.2426C52.6028 47.3829 51.3429 48.1765 49.8561 48.6911C48.7458 49.0754 48.0149 49.2031 46.6696 49.2477L45.4766 49.2873V46.801Z" fill="#13A3D7"/>
</g>
</g>
<rect x="98" width="68" height="68" rx="16" fill="white" fill-opacity="0.05"/>
<g clip-path="url(#clip3_5_458)">
<g clip-path="url(#clip4_5_458)">
<path d="M130.879 28.4899V19.791L127.633 21.6163V30.3152L130.879 28.4899ZM132.096 39.1567V47.8555L135.365 46.0302V37.3313L132.096 39.1567ZM127.633 36.6354V46.0302L130.879 47.8555V38.5292L136.576 35.3349V45.3286L139.845 43.5261V24.1148L136.576 22.3123V31.6157L127.633 36.6354ZM126.393 22.3123L123.147 24.1376V43.5261L126.393 45.3286V36.0308L135.359 31.0111V21.6163L132.09 19.791V29.1173L126.393 32.3116V22.3123ZM121.936 24.8107L119.166 26.3622C118.902 26.5219 118.667 26.8471 118.667 27.1266V40.5256C118.667 40.7823 118.884 41.1246 119.166 41.29L121.936 42.8415V24.8107ZM141.063 42.8359L143.832 41.2843C144.097 41.1246 144.332 40.7995 144.332 40.5199V27.1266C144.332 26.8699 144.114 26.5276 143.832 26.3622L141.063 24.8107V42.8359Z" fill="#66BD29"/>
</g>
</g>
<rect x="186" width="68" height="68" rx="16" fill="white" fill-opacity="0.05"/>
<g clip-path="url(#clip5_5_458)">
<g clip-path="url(#clip6_5_458)">
<path d="M216.622 19.8887C216.037 19.8887 215.562 20.3628 215.562 20.9475V28.3735H235.173L226.243 19.8894L216.622 19.8887Z" fill="#117ACA"/>
<path d="M235.891 30.6202C235.891 30.0341 235.421 29.562 234.832 29.562H227.41V49.1787L235.888 40.2416L235.891 30.6202Z" fill="#117ACA"/>
<path d="M225.159 49.8889C225.743 49.8889 226.217 49.4141 226.217 48.8281V41.4048H206.605L215.537 49.8876L225.159 49.8889Z" fill="#117ACA"/>
<path d="M205.891 39.1588C205.891 39.7442 206.365 40.221 206.951 40.221H214.372V20.603L205.892 29.5374L205.891 39.1588Z" fill="#117ACA"/>
</g>
</g>
<rect x="274" width="68" height="68" rx="16" fill="white" fill-opacity="0.05"/>
<g clip-path="url(#clip7_5_458)">
<g clip-path="url(#clip8_5_458)">
<path d="M307.842 41.9991C312.578 37.9498 319.23 34.0129 322.883 32.5957C322.32 32.2357 321.44 31.7183 320.448 31.1558C315.735 32.7081 310.233 36.15 305.316 40.042C306.151 40.6719 307.03 41.3242 307.842 41.9991Z" fill="#E31837"/>
<path d="M305.678 30.9981C304.979 30.6607 304.212 30.3456 303.626 30.0757C301.844 30.9531 299.521 32.2803 296.59 34.3725C297.221 34.71 297.898 35.115 298.619 35.5198C300.874 33.8551 303.152 32.2803 305.678 30.9981Z" fill="white"/>
<path d="M309.895 29.0632C309.038 28.5909 306.061 27.4887 304.009 27.0161C303.4 27.2412 302.543 27.5786 301.957 27.826C302.701 28.0285 305.475 28.7708 307.843 29.9632C308.452 29.6707 309.308 29.3107 309.895 29.0632Z" fill="#E31837"/>
<path d="M299.814 28.771C297.175 29.9858 294.402 31.6506 292.891 32.6179C293.432 32.8654 293.973 33.0678 294.717 33.4278C298.055 31.1782 300.671 29.8059 301.708 29.356C300.964 29.086 300.265 28.9061 299.814 28.771Z" fill="white"/>
<path d="M311.879 28.366C312.488 28.1634 313.187 27.9834 313.796 27.8035C312.037 27.0612 309.827 26.2738 307.843 25.7788C307.527 25.8688 306.58 26.1163 305.926 26.3187C306.602 26.5211 308.835 27.0385 311.879 28.366ZM300.762 36.8246C301.483 37.2521 302.25 37.8371 302.994 38.3319C307.933 34.5076 312.804 31.5604 318.148 29.8957C317.404 29.5133 316.75 29.1758 315.916 28.7708C312.714 29.5807 307.234 31.7629 300.762 36.8246Z" fill="#E31837"/>
</g>
</g>
<rect x="362" width="68" height="68" rx="16" fill="white" fill-opacity="0.05"/>
<rect x="450" width="68" height="68" rx="16" fill="white" fill-opacity="0.05"/>
<g clip-path="url(#clip9_5_458)">
<g clip-path="url(#clip10_5_458)">
<path d="M469.898 22.4692H499.883V40.1993L484.891 45.309L469.898 40.1993V22.4692Z" fill="#D62A43"/>
<path d="M484.885 39.6422H480.302V38.0551H480.256C479.367 39.3053 478.094 39.9543 476.199 39.9543C473.967 39.9543 471.926 38.5835 471.926 35.7233V27.1655H476.678V33.7035C476.678 35.147 476.844 36.1559 478.238 36.1559C479.053 36.1559 480.133 35.7481 480.133 33.7533V27.1655H484.885V39.6422Z" fill="white"/>
<path d="M493.743 30.7974C493.718 30.3877 493.504 30.0756 493.192 29.8593C492.902 29.618 492.518 29.4974 492.135 29.4974C491.461 29.4974 490.695 29.6429 490.695 30.4604C490.695 30.8222 490.982 30.9888 491.246 31.1075C492.039 31.4445 493.839 31.5402 495.422 32.0686C497.007 32.574 498.399 33.5121 498.399 35.5567C498.399 39.0162 495.087 39.9543 492.062 39.9543C489.135 39.9543 485.918 38.7769 485.848 35.5567H490.381C490.406 35.9894 490.597 36.3493 490.959 36.6614C491.199 36.8777 491.656 37.0213 492.231 37.0213C492.855 37.0213 493.839 36.782 493.839 36.0603C493.839 35.3385 493.431 35.1222 491.222 34.7373C487.599 34.1132 486.135 32.9607 486.135 30.8222C486.135 27.6729 489.52 26.8535 492.014 26.8535C494.702 26.8535 497.943 27.6002 498.062 30.7974H493.743Z" fill="white"/>
</g>
</g>
<rect x="538" width="68" height="68" rx="16" fill="white" fill-opacity="0.05"/>
<g clip-path="url(#clip11_5_458)">
<g clip-path="url(#clip12_5_458)">
<path d="M587.897 18.8906H557.898V44.6096L561.932 48.8889H587.897V18.8906Z" fill="white"/>
<path d="M587.898 39.0359V18.8887H568.359C577.599 22.1931 584.873 29.6682 587.898 39.0359Z" fill="#FE3B1F"/>
<path d="M585.743 48.888H560.647C559.129 48.888 557.898 47.6588 557.898 46.1409V20.7334C564.297 20.7751 570.193 22.9721 574.898 26.6345L569.056 33.729L561.512 33.9187L565.637 38.519L560.241 46.703L569.608 42.4547L575.202 46.703V39.414L581.976 34.7421C584.37 38.8687 585.743 43.6599 585.743 48.7651V48.888ZM575.202 26.8755V33.729L581.453 33.8781C579.772 31.2086 577.655 28.8399 575.202 26.8755Z" fill="#0057A7"/>
</g>
</g>
<rect x="626" width="68" height="68" rx="16" fill="white" fill-opacity="0.05"/>
<g clip-path="url(#clip13_5_458)">
<g clip-path="url(#clip14_5_458)">
<path d="M659.864 18.9053C667.613 18.9053 673.898 25.3977 673.898 33.4199V47.3169H665.838V33.4141C665.838 29.9901 663.165 27.216 659.858 27.216C656.554 27.216 653.87 29.9901 653.87 33.4141C653.87 36.8323 656.557 39.5977 659.858 39.5977H665.838L658.385 47.8472C651.329 47.0808 645.833 40.9148 645.833 33.417C645.833 25.3977 652.117 18.9053 659.864 18.9053Z" fill="white"/>
</g>
</g>
<rect x="714" width="68" height="68" rx="16" fill="white" fill-opacity="0.05"/>
<g clip-path="url(#clip15_5_458)">
<g clip-path="url(#clip16_5_458)">
<path d="M761.234 48.206C762.11 47.2998 762.128 45.8118 761.234 44.8933L756.001 39.4802L759.636 39.517C761.056 39.5538 761.879 38.5251 761.879 37.233C761.879 35.9103 760.879 34.8755 759.636 34.8755H755.113C754.119 34.8755 753.314 35.5124 753.006 36.3451C752.438 37.8759 751.272 39.0884 749.768 39.6946C748.957 40.0253 748.348 40.8458 748.348 41.8745V46.5527C748.348 47.8386 749.342 48.8734 750.627 48.8734C751.87 48.8734 752.87 48.0223 752.834 46.5527L752.799 42.793L758.032 48.206C758.919 49.1246 760.358 49.1062 761.234 48.206ZM761.234 20.5469C760.364 19.6407 758.919 19.6223 758.032 20.5469L752.799 25.96L752.834 22.2002C752.87 20.7306 751.87 19.8795 750.627 19.8795C749.348 19.8795 748.348 20.9143 748.348 22.2002V26.8785C748.348 27.9072 748.963 28.7399 749.768 29.0583C751.248 29.6462 752.414 30.8525 753.006 32.4078C753.326 33.2467 754.119 33.8774 755.113 33.8774H759.636C760.879 33.8774 761.879 32.8487 761.879 31.52C761.879 30.234 761.056 29.1992 759.636 29.2359L756.001 29.2727L761.234 23.8597C762.122 22.9412 762.104 21.4471 761.234 20.5469ZM734.497 20.5469C733.621 21.4532 733.609 22.9412 734.497 23.8597L739.729 29.2727L736.095 29.2359C734.674 29.1992 733.852 30.2279 733.852 31.52C733.852 32.8426 734.852 33.8774 736.095 33.8774H740.617C741.612 33.8774 742.417 33.2406 742.724 32.4078C743.293 30.877 744.459 29.6646 745.962 29.0583C746.773 28.7278 747.383 27.9072 747.383 26.8785V22.2002C747.383 20.9143 746.388 19.8795 745.104 19.8795C743.861 19.8795 742.861 20.7306 742.896 22.2002L742.932 25.96L737.699 20.5469C736.811 19.6223 735.367 19.6407 734.497 20.5469ZM734.497 48.206C735.367 49.1123 736.811 49.1307 737.699 48.206L742.932 42.793L742.896 46.5527C742.861 48.0223 743.855 48.8734 745.104 48.8734C746.382 48.8734 747.383 47.8386 747.383 46.5527V41.8745C747.383 40.8458 746.767 40.013 745.962 39.6946C744.482 39.1068 743.316 37.9005 742.724 36.3451C742.405 35.5062 741.612 34.8755 740.617 34.8755H736.095C734.852 34.8755 733.852 35.9042 733.852 37.233C733.852 38.5189 734.674 39.5538 736.095 39.517L739.729 39.4802L734.497 44.8933C733.603 45.8118 733.621 47.2998 734.497 48.206Z" fill="#00965E"/>
</g>
</g>
<rect x="802" width="68" height="68" rx="16" fill="white" fill-opacity="0.05"/>
</g>
<defs>
<clipPath id="clip0_5_458">
<rect width="808.33" height="68" fill="white"/>
</clipPath>
<clipPath id="clip1_5_458">
<rect width="30" height="30" fill="white" transform="translate(29 19)"/>
</clipPath>
<clipPath id="clip2_5_458">
<rect width="26" height="31" fill="white" transform="translate(31 19)"/>
</clipPath>
<clipPath id="clip3_5_458">
<rect width="30" height="30" fill="white" transform="translate(117 19)"/>
</clipPath>
<clipPath id="clip4_5_458">
<rect width="27" height="29" fill="white" transform="translate(118 19)"/>
</clipPath>
<clipPath id="clip5_5_458">
<rect width="30" height="30" fill="white" transform="translate(205 19)"/>
</clipPath>
<clipPath id="clip6_5_458">
<rect width="31" height="31" fill="white" transform="translate(205 19)"/>
</clipPath>
<clipPath id="clip7_5_458">
<rect width="30" height="30" fill="white" transform="translate(293 19)"/>
</clipPath>
<clipPath id="clip8_5_458">
<rect width="31" height="17" fill="white" transform="translate(292 25)"/>
</clipPath>
<clipPath id="clip9_5_458">
<rect width="30" height="30" fill="white" transform="translate(469 19)"/>
</clipPath>
<clipPath id="clip10_5_458">
<rect width="31" height="24" fill="white" transform="translate(469 22)"/>
</clipPath>
<clipPath id="clip11_5_458">
<rect width="30" height="30" fill="white" transform="translate(557 19)"/>
</clipPath>
<clipPath id="clip12_5_458">
<rect width="31" height="31" fill="white" transform="translate(557 18)"/>
</clipPath>
<clipPath id="clip13_5_458">
<rect width="30" height="30" fill="white" transform="translate(645 19)"/>
</clipPath>
<clipPath id="clip14_5_458">
<rect width="29" height="30" fill="white" transform="translate(645 18)"/>
</clipPath>
<clipPath id="clip15_5_458">
<rect width="30" height="30" fill="white" transform="translate(733 19)"/>
</clipPath>
<clipPath id="clip16_5_458">
<rect width="29" height="30" fill="white" transform="translate(733 19)"/>
</clipPath>
</defs>
</svg>
