<svg width="67" height="67" viewBox="0 0 67 67" fill="none" xmlns="http://www.w3.org/2000/svg">
<path d="M57.5781 7.85156H36.6406C35.7734 7.85156 35.0703 8.55462 35.0703 9.42188V26.1719C35.0703 27.0391 35.7734 27.7422 36.6406 27.7422H57.5781C58.4454 27.7422 59.1484 27.0391 59.1484 26.1719V9.42188C59.1484 8.55462 58.4454 7.85156 57.5781 7.85156Z" fill="#FF7155" stroke="#4D4E50" stroke-width="1.04688"/>
<path d="M53.3906 21.9844L50.2259 17.4127C50.1396 17.2879 50.0272 17.1835 49.8965 17.1065C49.7658 17.0295 49.6199 16.9818 49.4689 16.9668C49.318 16.9518 49.1656 16.9697 49.0222 17.0194C48.8789 17.0691 48.7481 17.1494 48.6389 17.2546L46.5179 19.297C46.4108 19.4003 46.2828 19.4796 46.1426 19.5295C46.0025 19.5794 45.8532 19.5989 45.7049 19.5866C45.5566 19.5743 45.4127 19.5306 45.2826 19.4583C45.1526 19.3859 45.0394 19.2867 44.9507 19.1672L40.8281 13.6094" stroke="white" stroke-width="1.04688" stroke-linecap="round" stroke-linejoin="round"/>
<path d="M30.3594 7.85156H9.42188C8.55462 7.85156 7.85156 8.55462 7.85156 9.42188V26.1719C7.85156 27.0391 8.55462 27.7422 9.42188 27.7422H30.3594C31.2266 27.7422 31.9297 27.0391 31.9297 26.1719V9.42188C31.9297 8.55462 31.2266 7.85156 30.3594 7.85156Z" fill="#B25AF9" stroke="#4D4E50" stroke-width="1.04688"/>
<path d="M13.6094 21.9844L16.7741 17.4127C16.8604 17.2879 16.9728 17.1835 17.1035 17.1065C17.2342 17.0295 17.3801 16.9818 17.5311 16.9668C17.682 16.9518 17.8344 16.9697 17.9778 17.0194C18.1211 17.0691 18.2519 17.1494 18.3611 17.2546L20.4821 19.297C20.5892 19.4003 20.7172 19.4796 20.8574 19.5295C20.9975 19.5794 21.1468 19.5989 21.2951 19.5866C21.4434 19.5743 21.5873 19.5306 21.7174 19.4583C21.8475 19.3859 21.9606 19.2867 22.0493 19.1672L26.1719 13.6094" stroke="white" stroke-width="1.04688" stroke-linecap="round" stroke-linejoin="round"/>
<path d="M60.7188 2.09375H6.28125C5.17066 2.09375 4.10555 2.53493 3.32024 3.32024C2.53493 4.10555 2.09375 5.17066 2.09375 6.28125V46.0625C2.09375 47.1731 2.53493 48.2382 3.32024 49.0235C4.10555 49.8088 5.17066 50.25 6.28125 50.25H60.7188C61.8293 50.25 62.8945 49.8088 63.6798 49.0235C64.4651 48.2382 64.9062 47.1731 64.9062 46.0625V6.28125C64.9062 5.17066 64.4651 4.10555 63.6798 3.32024C62.8945 2.53493 61.8293 2.09375 60.7188 2.09375Z" stroke="#4D4E50" stroke-width="1.04688"/>
<path d="M33.5 64.9062C42.1723 64.9062 49.2031 57.8754 49.2031 49.2031C49.2031 40.5308 42.1723 33.5 33.5 33.5C24.8277 33.5 17.7969 40.5308 17.7969 49.2031C17.7969 57.8754 24.8277 64.9062 33.5 64.9062Z" fill="#010205" stroke="#4D4E50" stroke-width="1.04688"/>
<path d="M33.5 62.8125C41.0166 62.8125 47.1094 56.7197 47.1094 49.2031C47.1094 41.6866 41.0166 35.5938 33.5 35.5938C25.9834 35.5938 19.8906 41.6866 19.8906 49.2031C19.8906 56.7197 25.9834 62.8125 33.5 62.8125Z" fill="#010205"/>
<path d="M29.3125 51.9114C29.3125 53.4115 30.5551 54.6217 32.1003 54.6217H35.2514C36.5946 54.6217 37.6875 53.5633 37.6875 52.26C37.6875 50.8415 37.0217 50.3411 36.0303 50.0155L30.9697 48.3865C29.9783 48.062 29.3125 47.5605 29.3125 46.142C29.3125 44.8387 30.4054 43.7803 31.7486 43.7803H34.8997C36.4449 43.7803 37.6875 44.9905 37.6875 46.4917M33.4874 42.2225V56.1805" stroke="white" stroke-width="1.04688" stroke-linecap="round" stroke-linejoin="round"/>
</svg>
