<svg width="67" height="67" viewBox="0 0 67 67" fill="none" xmlns="http://www.w3.org/2000/svg">
<g clip-path="url(#clip0_5_341)">
<path d="M37.6875 7.32812H59.6719V33.5H7.32812V59.6719H32.9766" stroke="#4D4E50" stroke-width="1.04688"/>
<path d="M33.5 13.6094C34.3249 13.6094 35.1417 13.4469 35.9037 13.1312C36.6658 12.8156 37.3582 12.3529 37.9415 11.7696C38.5248 11.1864 38.9875 10.4939 39.3031 9.73186C39.6188 8.96978 39.7812 8.15299 39.7812 7.32812C39.7812 6.50326 39.6188 5.68647 39.3031 4.92439C38.9875 4.16232 38.5248 3.46988 37.9415 2.88661C37.3582 2.30334 36.6658 1.84067 35.9037 1.52501C35.1417 1.20934 34.3249 1.04687 33.5 1.04688C31.8341 1.04688 30.2364 1.70865 29.0585 2.88661C27.8805 4.06457 27.2188 5.66223 27.2188 7.32812C27.2188 8.99402 27.8805 10.5917 29.0585 11.7696C30.2364 12.9476 31.8341 13.6094 33.5 13.6094Z" fill="#B25AF9" stroke="#4D4E50" stroke-width="1.04688"/>
<path d="M33.5 65.9531C35.1659 65.9531 36.7636 65.2914 37.9415 64.1134C39.1195 62.9354 39.7812 61.3378 39.7812 59.6719C39.7812 58.006 39.1195 56.4083 37.9415 55.2304C36.7636 54.0524 35.1659 53.3906 33.5 53.3906C31.8341 53.3906 30.2364 54.0524 29.0585 55.2304C27.8805 56.4083 27.2188 58.006 27.2188 59.6719C27.2188 61.3378 27.8805 62.9354 29.0585 64.1134C30.2364 65.2914 31.8341 65.9531 33.5 65.9531Z" fill="#FF7155" stroke="#4D4E50" stroke-width="1.04688"/>
<path d="M7.32812 64.9062C8.71637 64.9062 10.0478 64.3548 11.0294 63.3731C12.011 62.3915 12.5625 61.0601 12.5625 59.6719C12.5625 58.2836 12.011 56.9522 11.0294 55.9706C10.0478 54.989 8.71637 54.4375 7.32812 54.4375C5.93988 54.4375 4.6085 54.989 3.62686 55.9706C2.64523 56.9522 2.09375 58.2836 2.09375 59.6719C2.09375 61.0601 2.64523 62.3915 3.62686 63.3731C4.6085 64.3548 5.93988 64.9062 7.32812 64.9062ZM7.32812 38.7344C8.71637 38.7344 10.0478 38.1829 11.0294 37.2013C12.011 36.2196 12.5625 34.8882 12.5625 33.5C12.5625 32.1118 12.011 30.7804 11.0294 29.7987C10.0478 28.8171 8.71637 28.2656 7.32812 28.2656C5.93988 28.2656 4.6085 28.8171 3.62686 29.7987C2.64523 30.7804 2.09375 32.1118 2.09375 33.5C2.09375 34.8882 2.64523 36.2196 3.62686 37.2013C4.6085 38.1829 5.93988 38.7344 7.32812 38.7344ZM59.6719 38.7344C61.0601 38.7344 62.3915 38.1829 63.3731 37.2013C64.3548 36.2196 64.9062 34.8882 64.9062 33.5C64.9062 32.1118 64.3548 30.7804 63.3731 29.7987C62.3915 28.8171 61.0601 28.2656 59.6719 28.2656C58.2836 28.2656 56.9522 28.8171 55.9706 29.7987C54.989 30.7804 54.4375 32.1118 54.4375 33.5C54.4375 34.8882 54.989 36.2196 55.9706 37.2013C56.9522 38.1829 58.2836 38.7344 59.6719 38.7344ZM59.6719 12.5625C61.0601 12.5625 62.3915 12.011 63.3731 11.0294C64.3548 10.0478 64.9062 8.71637 64.9062 7.32812C64.9062 5.93988 64.3548 4.6085 63.3731 3.62686C62.3915 2.64523 61.0601 2.09375 59.6719 2.09375C58.2836 2.09375 56.9522 2.64523 55.9706 3.62686C54.989 4.6085 54.4375 5.93988 54.4375 7.32812C54.4375 8.71637 54.989 10.0478 55.9706 11.0294C56.9522 12.011 58.2836 12.5625 59.6719 12.5625ZM33.5 49.2031C42.1723 49.2031 49.2031 42.1723 49.2031 33.5C49.2031 24.8277 42.1723 17.7969 33.5 17.7969C24.8277 17.7969 17.7969 24.8277 17.7969 33.5C17.7969 42.1723 24.8277 49.2031 33.5 49.2031Z" fill="#010205" stroke="#4D4E50" stroke-width="1.04688"/>
<path d="M33.5 47.1094C41.0166 47.1094 47.1094 41.0166 47.1094 33.5C47.1094 25.9834 41.0166 19.8906 33.5 19.8906C25.9834 19.8906 19.8906 25.9834 19.8906 33.5C19.8906 41.0166 25.9834 47.1094 33.5 47.1094Z" fill="#010205"/>
<path d="M29.3125 36.2084C29.3125 37.7085 30.5551 38.9187 32.1003 38.9187H35.2514C36.5946 38.9187 37.6875 37.8603 37.6875 36.557C37.6875 35.1385 37.0217 34.638 36.0303 34.3125L30.9697 32.6835C29.9783 32.359 29.3125 31.8575 29.3125 30.439C29.3125 29.1357 30.4054 28.0773 31.7486 28.0773H34.8997C36.4449 28.0773 37.6875 29.2875 37.6875 30.7887M33.4874 26.5195V40.4775" stroke="white" stroke-width="1.04688" stroke-linecap="round" stroke-linejoin="round"/>
</g>
<defs>
<clipPath id="clip0_5_341">
<rect width="67" height="67" fill="white"/>
</clipPath>
</defs>
</svg>
